<?xml version="1.0" standalone="no"?>
<!DOCTYPE svg PUBLIC "-//W3C//DTD SVG 1.1//EN" "http://www.w3.org/Graphics/SVG/1.1/DTD/svg11.dtd" >
<svg xmlns="http://www.w3.org/2000/svg">
<metadata>
Created by FontPrep 20130207 at Sat Jun 14 16:45:31 2014
 By Magalie Chetrit
Copyright (c) 1990, 1991, 1994, 2002 Adobe Systems Incorporated.  All Rights Reserved.
</metadata>
<defs>
<font id="f59c2fce867cf50492b663d3b4dcc4b1" horiz-adv-x='1024' >
  <font-face 
    font-family="AmericanTypewriterStd-Light"
    font-weight="300"
    font-stretch="normal"
    units-per-em="2048"
    panose-1="2 9 3 4 3 5 5 2 3 4"
    ascent="1419"
    descent="-629"
    x-height="1026"
    cap-height="1399"
    bbox="-283 -512 2429 1812"
    underline-thickness="102"
    underline-position="-102"
    unicode-range="U+0020-FB02"
  />
<missing-glyph horiz-adv-x="1024" 
d="M102 1239v-1044l349 522zM164 102h696l-348 523zM573 717l349 -522v1044zM512 809l348 522h-696zM0 0v1434h1024v-1434h-1024z" />
    <glyph glyph-name="f_i" unicode="fi" horiz-adv-x="1269" 
d="M938 381v336q0 195 -12 233t-72 37h-403q-55 0 -69 -10t-13 -47v-549q0 -242 15 -295t99 -53l101 8q45 0 45 -28t-39 -27l-250 14l-248 -14q-39 0 -39 28t45 27l101 -8q84 0 99 53t15 295v549q0 35 -7 46t-30 11l-129 -8q-49 0 -49 28t37 27l135 -8q27 0 34 7t12 47
q21 164 50 212q47 84 110 115q95 45 231 45q135 0 225 -51t90 -127q0 -33 -20 -62q-20 -28 -61 -28q-40 0 -57 20q-18 20 -18 48t18 46t38 18q18 0 18 9q0 15 -30 35q-75 48 -230 49q-156 0 -233 -82t-76 -258q0 -31 11 -37t60 -6h402l114 8q23 0 29 -10t6 -33v-610
q-1 -242 15 -295t100 -53l100 8q45 0 45 -28t-39 -27l-249 14l-248 -14q-39 0 -39 28t45 27l100 -8q84 0 100 53q15 53 15 295z" />
    <glyph glyph-name="f_l" unicode="fl" horiz-adv-x="1269" 
d="M369 930v-549q0 -242 15 -295t99 -53l101 8q45 0 45 -28t-39 -27l-250 14l-248 -14q-39 0 -39 28t45 27l101 -8q84 0 99 53t15 295v549q0 35 -7 46t-30 11l-129 -8q-49 0 -49 28t37 27l135 -8q27 0 35 7t11 63q7 132 63 233q69 123 268 123q86 0 162 -7t104 -7h45
q23 0 29 -10t6 -33v-1014q-1 -242 15 -295t100 -53l100 8q45 0 45 -28t-39 -27l-249 14l-248 -14q-39 0 -39 28t45 27l100 -8q84 0 100 53q15 53 15 295v739q0 162 -4 202t-23 56q-35 31 -237 31q-146 0 -226 -70t-79 -264q0 -35 8 -42t41 -7l219 8q55 0 55 -28t-57 -27
l-213 8q-35 0 -44 -10t-9 -47z" />
    <glyph glyph-name=".notdef" horiz-adv-x="1024" 
d="M102 1239v-1044l349 522zM164 102h696l-348 523zM573 717l349 -522v1044zM512 809l348 522h-696zM0 0v1434h1024v-1434h-1024z" />
    <glyph glyph-name=".null" horiz-adv-x="0" 
 />
    <glyph glyph-name="nonmarkingreturn" horiz-adv-x="681" 
 />
    <glyph glyph-name="space" unicode=" " horiz-adv-x="655" 
 />
    <glyph glyph-name="exclam" unicode="!" horiz-adv-x="884" 
d="M342 78q0 43 29 73q29 29 71 29t72 -30q29 -30 29 -72q0 -43 -30 -73t-71 -30q-40 0 -70 30t-30 73zM444 262q-33 0 -32 51l-9 1080q0 59 38 59t38 -59l-8 -1080q0 -51 -27 -51z" />
    <glyph glyph-name="quotedbl" unicode="&#x22;" horiz-adv-x="845" 
d="M596 1430q49 0 49 -89q0 -49 -27 -374q-2 -51 -22 -52q-20 0 -23 52q-27 326 -26 374q0 89 49 89zM252 1430q49 0 49 -89q0 -49 -27 -374q-2 -51 -22 -52q-20 0 -23 52q-27 326 -26 374q0 89 49 89z" />
    <glyph glyph-name="numbersign" unicode="#" 
d="M953 1415q30 0 20 -51l-60 -428h203q37 0 37 -21q0 -37 -51 -36h-197l-49 -355h203q37 0 37 -20q0 -37 -52 -37h-196l-60 -428q-6 -51 -36 -51t-21 51l60 428h-336l-60 -428q-6 -51 -37 -51t-20 51l59 428h-202q-37 0 -37 20q0 37 51 37h197l49 355h-203q-37 0 -37 20
q0 37 51 37h197l59 428q8 51 38 51t20 -51l-60 -428h336l59 428q8 51 38 51zM512 879l-49 -355h336l49 355h-336z" />
    <glyph glyph-name="dollar" unicode="$" 
d="M299 1035q0 -108 67 -171q50 -48 174 -80q37 -10 111 -28v581q-178 -10 -265 -102t-87 -200zM1081 389q0 116 -58 172q-31 31 -59 50q-62 43 -257 81v-645q170 21 272 103t102 239zM651 1602q0 43 31 43q25 0 25 -43v-218q171 -10 291 -88t120 -219q0 -47 -28 -79
t-68 -32q-39 0 -57 20q-19 19 -19 56t45 54q43 14 43 53t-43 85q-87 93 -284 103v-589q180 -33 261 -74t125 -110q44 -68 45 -154q2 -86 -16 -140q-75 -233 -415 -270v-174q0 -59 -29 -59q-18 0 -23 14q-4 14 -4 51v168q-211 8 -346 112t-135 234q0 49 24 89t68 40t67 -20
q23 -21 23 -53t-22 -50t-56 -18t-34 -35t32 -80t72 -77t122 -60q81 -28 185 -35v653q-151 29 -269 92q-140 73 -140 226t108 256q109 102 301 110v218z" />
    <glyph glyph-name="percent" unicode="%" horiz-adv-x="1693" 
d="M1272 1436q12 0 20 -10t8 -24t-32 -67q-346 -549 -742 -1247q-57 -98 -71 -120q-15 -22 -27 -22t-20 11q-8 10 -8 24q0 13 26 59t327 545q300 499 389 653t103 176q15 22 27 22zM399 584q-153 0 -239 117t-86 299t91 307t245 125t238 -117t85 -299q0 -182 -90 -307
t-244 -125zM135 999q0 -161 66 -265q67 -104 199 -103t202 113t70 273t-66 264t-198 103t-203 -112q-70 -112 -70 -273zM1024 370q0 -162 66 -266t198 -104t203 114q70 114 70 274t-66 263t-199 103q-132 0 -202 -112t-70 -272zM1288 -47q-154 0 -240 117t-85 299
q0 182 91 307q90 125 244 125t239 -117t85 -299t-90 -307t-244 -125z" />
    <glyph glyph-name="ampersand" unicode="&#x26;" horiz-adv-x="1732" 
d="M193 354q-1 -168 107 -258t255 -90q186 0 298 138q19 24 48 65q-111 131 -190 245q-80 114 -195 322q-239 -130 -298 -276q-25 -66 -25 -146zM844 1182q0 88 -38 133t-78 56t-81 11t-81 -11t-81 -61t-41 -134q0 -121 107 -320q293 158 293 326zM652 1430q122 0 188 -74
t65 -151q0 -145 -120 -247q-86 -73 -212 -147q156 -287 258 -420q37 -47 103 -127q30 62 93 261q63 200 69 218q98 274 327 275q129 0 194 -77t65 -168t-60 -152t-132 -61t-111 33q-38 34 -38 72q-1 38 17 57t43 19q45 0 45 -45q0 -18 -20 -30t-21 -17q0 -12 25 -24
q26 -13 70 -13t85 48t41 107t-30 108q-56 92 -183 92q-128 0 -201 -115q-57 -92 -111 -274q-55 -182 -73 -234t-55 -123q127 -127 227 -160t234 -33t165 -3q31 -5 31 -23t-25 -26q-26 -7 -146 -7q-121 0 -231 29q-110 28 -159 62t-131 108q-43 -57 -78 -94t-122 -78
t-193 -41q-180 0 -301 106t-121 281q0 80 28 151q29 71 63 117q72 95 280 213q-119 217 -119 338t77 195q78 74 200 74z" />
    <glyph glyph-name="quotesingle" unicode="'" horiz-adv-x="501" 
d="M252 1430q49 0 49 -89q0 -49 -27 -374q-2 -51 -22 -52q-20 0 -23 52q-27 326 -26 374q0 89 49 89z" />
    <glyph glyph-name="parenleft" unicode="(" horiz-adv-x="808" 
d="M172 508q0 -291 141 -513t363 -353q78 -45 78 -54q0 -16 -26 -16t-96 37t-161 117q-92 80 -175 185t-140 264q-58 159 -58 335t60 337q59 161 143 265t177 183t162 114t91 35t23 -17q0 -12 -74 -54t-82 -48q-426 -319 -426 -817z" />
    <glyph glyph-name="parenright" unicode=")" horiz-adv-x="808" 
d="M637 508q0 498 -426 817q-8 6 -82 49t-74 53q0 41 114 -18q69 -35 162 -114t177 -183t143 -265t59 -337t-56 -335q-58 -159 -141 -264t-175 -185t-162 -117t-95 -37t-26 16q0 8 78 54q221 131 363 353q141 222 141 513z" />
    <glyph glyph-name="asterisk" unicode="*" 
d="M688 1126q0 -12 25 -41l112 -124q31 -33 31 -51q0 -34 -33 -36q-23 0 -53 48l-82 145q-18 33 -34 33t-33 -33l-82 -145q-25 -48 -56 -48t-30 33q0 20 30 54l113 124q25 29 25 39q0 23 -50 31l-163 35q-61 12 -62 45q0 35 39 35q12 0 43 -15l154 -69q27 -12 36 -12
q23 0 23 28l-20 193l-5 32q0 17 12 29t27 12q17 0 27 -13t10 -25t-4 -35l-18 -166l-2 -27q0 -29 22 -28q12 0 37 12l154 69q35 14 45 15q37 0 37 -35q-1 -35 -62 -45l-164 -35q-49 -8 -49 -29z" />
    <glyph glyph-name="plus" unicode="+" horiz-adv-x="1228" 
d="M643 1026v-485h483v-58h-483v-483h-57v483h-484v58h484v485h57z" />
    <glyph glyph-name="comma" unicode="," horiz-adv-x="462" 
d="M131 65q0 43 30 73q29 30 87 30t88 -56t31 -147q0 -91 -40 -193t-80 -154t-57 -52q-8 0 -17 8t-9 16t8 17q133 152 133 309q0 68 -35 68l-55 -9q-29 0 -57 23t-27 67z" />
    <glyph glyph-name="hyphen" unicode="-" horiz-adv-x="499" 
d="M438 514h-383q-23 0 -39 10t-16 25q0 35 57 35h381q61 0 62 -35q-1 -35 -62 -35z" />
    <glyph glyph-name="period" unicode="." horiz-adv-x="462" 
d="M332 76q0 -43 -31 -72t-70 -29t-69 29t-31 72q0 44 31 72q32 28 70 28t69 -28t31 -72z" />
    <glyph glyph-name="slash" unicode="/" horiz-adv-x="845" 
d="M-43 -382q1 24 231 578q230 556 459 1182q15 46 25 60t28 14q35 0 35 -37q1 -11 -243 -614t-346 -877t-115 -302q-12 -28 -43 -28t-31 24z" />
    <glyph glyph-name="zero" unicode="0" 
d="M1006 1227q-52 69 -144 113t-209 44t-207 -44t-144 -114q-148 -190 -148 -533t148 -535q54 -70 144 -114t207 -44t208 44t146 114q148 192 148 532t-149 537zM1217 692q0 -430 -248 -633q-131 -106 -316 -106q-272 0 -416 213q-145 213 -145 525q0 313 144 527t417 214
q272 0 418 -214t146 -526z" />
    <glyph glyph-name="one" unicode="1" 
d="M627 485v600q1 173 -17 221t-104 48l-141 -8q-47 0 -48 26q0 27 37 27l160 -15l127 15q19 -1 29 -15t11 -28t1 -47v-824q0 -325 18 -389t105 -63l135 8q51 0 51 -28t-51 -27l-285 14l-288 -14q-49 0 -50 26q0 29 52 29l135 -8q86 0 104 64t19 388z" />
    <glyph glyph-name="two" unicode="2" 
d="M274 1024q62 0 62 -72q0 -32 -26 -51q-26 -18 -60 -18q-34 -1 -67 31q-34 32 -33 108q0 162 135 286t371 124t358 -116q121 -116 121 -286q0 -108 -49 -201q-31 -60 -112 -109q-81 -48 -164 -72q-84 -25 -192 -56q-356 -102 -424 -339q-19 -67 -20 -151h2q37 76 109 121
t164 45q131 0 250 -107t159 -134t115 -27q74 0 136 68t62 155q0 47 -16 86t-33 39l-20 -20q-37 -37 -71 -6q-15 14 -15 38t22 42q23 17 52 18q53 0 91 -58t38 -152q0 -92 -73 -174t-188 -83q-74 0 -132 35t-130 101t-126 95q-56 29 -146 29t-156 -53t-65 -90q0 -12 8 -13
l25 4q20 0 33 -15q30 -35 -2 -69q-15 -16 -52 -16t-61 46q-24 45 -23 141q0 96 43 186t126 149q146 104 357 164q93 27 141 42t112 47t96 66q75 82 75 227t-102 250t-326 105q-321 0 -425 -225q-26 -55 -26 -104t25 -49z" />
    <glyph glyph-name="three" unicode="3" 
d="M260 1384h787q47 0 67 -6t20 -30t-42 -66l-439 -428v-4q55 10 101 10q121 0 211 -37t138 -98q95 -121 93 -276q0 -187 -123 -334q-61 -74 -170 -118t-250 -44q-233 0 -367 112t-134 259q0 70 40 120t84 50t68 -20t23 -47q0 -28 -23 -53t-65 -4q-21 9 -35 9
q-14 -1 -28 -21t-13 -55q0 -125 130 -214t302 -89q250 0 375 128t125 300t-87 280t-288 107q-118 0 -192 -37q-26 -12 -27 -12q-19 0 -19 14t25 39l485 471q29 29 29 38t-31 9h-680q-60 0 -78 -16t-18 -82l12 -244q0 -47 -28 -47t-29 35l8 160l-8 186q0 55 51 55z" />
    <glyph glyph-name="four" unicode="4" 
d="M154 465q0 -6 24 -6h651q31 0 39 7t9 40v817q0 31 -9 31q-8 -1 -18 -17l-684 -850q-12 -16 -12 -22zM877 360q-1 35 -9 43t-39 9h-657q-84 0 -84 39q0 22 33 63l690 850q31 41 47 54t37 14q37 0 37 -60v-866q0 -31 8 -40t39 -7l231 10q51 0 52 -29q0 -29 -41 -28h-242
q-33 0 -40 -8t-7 -44v-43q0 -193 17 -239t98 -45l100 8q45 0 45 -28t-39 -27l-250 14l-248 -14q-39 0 -39 28t46 27l100 -8q80 0 97 46t18 238v43z" />
    <glyph glyph-name="five" unicode="5" 
d="M207 309q0 -117 119 -213t319 -96q246 0 367 130t121 326t-122 294q-122 100 -300 100q-131 0 -235 -49t-150 -103q-45 -54 -70 -55q-43 0 -37 45l72 623q6 47 14 60t35 13h684q39 0 43 -69q2 -31 16 -85q15 -54 15 -80t-23 -26q-18 0 -23 16q-6 16 -10 55q-4 40 -4 46
q-6 63 -29 80q-24 16 -94 16h-526q-27 0 -35 -9t-12 -48l-70 -553q0 -10 6 -10t59 52t157 90t213 38q221 0 354 -121q133 -122 133 -326t-140 -350t-392 -147q-207 0 -357 102t-149 264q0 66 33 116t85 50q88 0 91 -69q1 -29 -19 -46t-43 -18l-57 23q-39 0 -39 -66z" />
    <glyph glyph-name="six" unicode="6" 
d="M709 844q-121 0 -215 -43q-159 -73 -223 -255q-26 -75 -25 -149q0 -185 133 -291t317 -106t312 124q127 124 127 307q-1 183 -111 298t-315 115zM1092 1149q0 90 -96 163q-96 72 -236 72q-252 -1 -389 -166q-176 -216 -176 -608q0 -41 8 -143h2q78 424 506 424
q221 0 353 -124t132 -323t-139 -345t-381 -146t-392 179t-151 501q0 230 90 443t281 304q106 52 262 52t271 -90q116 -90 116 -222q0 -63 -30 -100q-31 -37 -69 -37t-60 18q-22 17 -22 47t18 46q17 16 36 16l41 -12q25 0 25 51z" />
    <glyph glyph-name="seven" unicode="7" 
d="M1067 1365q0 60 62 60q30 0 50 -34q19 -35 19 -91q0 -163 -172 -349q-34 -37 -100 -105q-258 -262 -292 -502q-16 -106 -16 -226t-7 -136t-29 -17q-43 0 -43 72q0 260 71 460q29 79 99 173t120 149q51 55 138 142t119 137t39 78q7 27 14 73h-4q-78 -109 -184 -109
t-211 122q-38 45 -93 83t-112 37q-101 0 -193 -97t-92 -259l6 -111q0 -25 -10 -41t-22 -16t-22 15q-9 15 -9 33t11 88q11 69 11 149l-8 239q0 43 28 43t27 -43l-8 -153h4q43 102 122 152q79 51 153 51t136 -38t102 -83q108 -121 196 -121q61 0 106 47t45 72q0 2 -12 8
q-39 20 -39 48z" />
    <glyph glyph-name="eight" unicode="8" 
d="M656 1384q-190 0 -282 -85q-93 -85 -93 -191t102 -186t267 -80t272 79q106 79 106 184t-91 192t-281 87zM1128 385q0 201 -137 305t-341 104t-337 -107q-133 -108 -133 -288q0 -179 129 -289t342 -110t345 108t132 277zM1190 397q0 -203 -153 -323t-385 -121
q-232 0 -384 123q-150 123 -149 321q0 315 370 422v4q-127 29 -199 107t-71 168q0 141 119 237q120 97 318 97t316 -96t118 -234q0 -94 -68 -170t-203 -109v-4q371 -111 371 -422z" />
    <glyph glyph-name="nine" unicode="9" 
d="M600 541q121 0 215 43q162 74 222 255q26 75 26 148q0 185 -133 291q-134 106 -318 106t-311 -124t-127 -306q0 -184 110 -298t316 -115zM217 236q0 -90 96 -163q95 -73 235 -73q356 0 491 344q75 191 75 430q0 41 -8 144h-2q-78 -424 -506 -424q-221 0 -353 124
t-132 322q0 199 139 345q139 147 381 147q243 0 393 -180t150 -500q0 -230 -91 -443t-280 -305q-106 -51 -238 -51q-180 0 -296 90t-115 221q0 63 29 101q30 37 69 37q38 0 60 -19q22 -18 22 -47t-18 -45t-35 -17l-41 13q-25 0 -25 -51z" />
    <glyph glyph-name="colon" unicode=":" horiz-adv-x="462" 
d="M332 956q0 -44 -31 -72t-70 -28t-69 29t-31 71q0 42 31 72q32 29 70 29t69 -29t31 -72zM332 76q0 -43 -31 -72t-70 -29t-69 29t-31 72q0 44 31 72q32 28 70 28t69 -28t31 -72z" />
    <glyph glyph-name="semicolon" unicode=";" horiz-adv-x="462" 
d="M332 956q0 -44 -31 -72t-70 -28t-69 29t-31 71q0 42 31 72q32 29 70 29t69 -29t31 -72zM131 65q0 43 30 73q29 30 87 30t88 -56t31 -147q0 -91 -40 -193t-80 -154t-57 -52q-8 0 -17 8t-9 16t8 17q133 152 133 309q0 68 -35 68l-55 -9q-29 0 -57 23t-27 67z" />
    <glyph glyph-name="less" unicode="&#x3c;" horiz-adv-x="1228" 
d="M102 547l1024 481v-63l-956 -451l956 -451v-63l-1024 481v66z" />
    <glyph glyph-name="equal" unicode="=" horiz-adv-x="1228" 
d="M102 342h1024v-57h-1024v57zM102 739h1024v-57h-1024v57z" />
    <glyph glyph-name="greater" unicode="&#x3e;" horiz-adv-x="1228" 
d="M102 63l957 451l-957 451v63l1024 -481v-66l-1024 -481v63z" />
    <glyph glyph-name="question" unicode="?" horiz-adv-x="1193" 
d="M430 78q0 43 29 73q29 29 71 29t72 -30q29 -30 29 -72q0 -43 -30 -73t-71 -30q-40 0 -70 30t-30 73zM381 1065q25 0 47 -19q22 -20 21 -60q0 -40 -37 -71t-106 -31t-126 56q-57 55 -57 147q0 143 131 254t369 111q133 0 232 -35q170 -60 228 -205q25 -58 25 -130
q0 -158 -109 -246q-92 -75 -224 -133q-132 -57 -175 -119t-43 -158t-5 -124t-24 -28q-25 0 -30 29q-6 29 -6 88q0 139 54 213t183 135q80 39 120 61t93 64q102 80 101 215t-101 231t-317 95q-217 0 -331 -97t-114 -223q0 -61 35 -106t75 -45t40 22l-15 45q1 27 21 45t45 19z
" />
    <glyph glyph-name="at" unicode="@" horiz-adv-x="1576" 
d="M901 1124q158 0 182 -108h4l19 55q8 25 27 25q29 0 28 -23q0 -16 -8 -35l-143 -424q-31 -92 -31 -146t36 -84t87 -30q141 0 238 165q98 165 98 375t-128 348t-343 138t-412 -137t-305 -340t-109 -413q0 -210 132 -348q133 -138 329 -138t397 131q17 8 29 2t12 -22
t-16 -27q-92 -63 -210 -98t-208 -35q-227 0 -370 148t-144 382q0 162 68 330q147 363 471 527q171 88 375 88t342 -153t139 -391q0 -238 -114 -408q-114 -171 -271 -171q-174 0 -174 182h-4q-154 -182 -320 -182q-88 0 -144 55t-57 152q0 142 69 284t185 234q117 92 244 92z
M459 530q0 -82 40 -129t117 -47q113 0 234 117q80 82 138 239t58 229q1 140 -150 140t-294 -179t-143 -370z" />
    <glyph glyph-name="A" unicode="A" horiz-adv-x="1540" 
d="M545 555h473q33 0 41 11t-2 44l-266 725l-283 -725q-12 -31 -5 -43t42 -12zM1235 94q0 41 -25 105l-106 278q-8 23 -16 29t-29 6h-553q-25 0 -34 -5t-17 -30l-115 -295q-25 -66 -25 -82q0 -68 109 -67l106 8q49 0 50 -29q0 -27 -43 -26l-256 14l-256 -14q-27 0 -27 24
q0 31 45 31l84 -8q57 0 90 32t74 138l438 1132q17 41 31 55t35 15q31 0 57 -68l311 -858q139 -385 187 -428q20 -18 59 -18l84 8q49 0 49 -29q0 -12 -15 -19t-32 -7l-225 14l-238 -14q-55 0 -55 24q0 12 15 22t36 9l125 -8q82 0 82 61z" />
    <glyph glyph-name="B" unicode="B" horiz-adv-x="1462" 
d="M397 610v-370q0 -125 7 -152t45 -35q83 -20 253 -20t209 2t112 21q73 20 119 54t83 106t37 164q0 171 -86 249q-90 77 -197 94q-107 16 -290 16t-229 -5q-46 -6 -54 -24t-9 -100zM397 1214v-337q0 -68 23 -81t127 -14q354 0 444 31q209 68 209 254t-135 241
q-102 42 -254 44q-276 0 -365 -19q-33 -9 -41 -29t-8 -90zM338 403v578q0 254 -15 312t-96 59l-114 -9q-45 0 -45 28t45 28l256 -15l450 15q446 0 447 -316q0 -152 -105 -226q-71 -50 -178 -87v-4q344 -59 344 -385q0 -180 -113 -288t-364 -107l-481 14l-256 -14
q-45 0 -45 28t45 27l114 -8q80 0 96 58q15 58 15 312z" />
    <glyph glyph-name="C" unicode="C" horiz-adv-x="1347" 
d="M715 1382q-119 0 -212 -40t-151 -107q-120 -143 -152 -307q-32 -163 -32 -258q0 -325 168 -516q60 -68 158 -110t223 -42q193 0 329 115t136 351q0 50 32 50t31 -56q0 -136 -73 -260q-139 -247 -455 -247t-473 228q-136 199 -142 507q0 289 144 505q72 108 192 171
q120 64 250 64q129 0 206 -24t127 -72t74 -81t54 -90h4l-6 160q0 61 28 61t27 -32l-14 -320l14 -213q0 -37 -32 -37t-31 41l6 135q0 144 -85 270q-46 70 -136 112t-209 42z" />
    <glyph glyph-name="D" unicode="D" horiz-adv-x="1540" 
d="M397 1079v-764q1 -211 15 -237t85 -36q71 -9 201 -9t203 8q74 8 168 46t156 102q61 65 104 188t43 275q0 590 -405 676q-112 24 -210 24t-202 -12q-105 -12 -121 -23q-16 -12 -26 -36q-10 -23 -11 -202zM338 403v578q0 254 -15 312t-96 59l-114 -9q-45 0 -45 28t45 28
l256 -15l381 15q190 0 309 -41t201 -135q178 -207 178 -552t-201 -536q-92 -86 -200 -118t-298 -31l-370 14l-256 -14q-45 0 -45 28t45 27l114 -8q80 0 96 58q15 58 15 312z" />
    <glyph glyph-name="E" unicode="E" horiz-adv-x="1425" 
d="M709 705h-234q-55 1 -66 -15t-12 -74v-442q0 -94 22 -112t118 -19h411q201 0 224 23q39 35 41 74q3 39 4 87l-11 224q0 61 33 61q13 0 23 -14t10 -39l-15 -197l15 -203q0 -47 -27 -60t-82 -13l-850 14q-33 0 -125 -6q-61 -8 -75 -8q-57 0 -58 30q0 35 51 35l142 -8
q45 0 63 20q17 19 21 55t6 136v913q-2 111 -17 143t-73 31l-142 -8q-22 0 -36 10q-31 23 0 46q14 10 36 10l123 -6q89 -9 183 -9t389 9l370 6q41 -1 61 -13t19 -53l-14 -221l14 -205q0 -74 -34 -73q-31 0 -31 73l10 269q0 118 -34 142t-179 23h-459q-86 1 -106 -27t-21 -169
v-307q-1 -62 13 -76t77 -14h222q82 0 125 22t43 90l-11 144q0 57 30 57t30 -62l-15 -270l15 -340q0 -59 -30 -59t-30 69l11 166q0 82 -36 111t-132 29z" />
    <glyph glyph-name="F" unicode="F" 
d="M723 672h-266q-41 0 -50 -18t-10 -58v-193q-1 -254 15 -312t96 -58l115 8q45 0 45 -28t-45 -27l-254 14l-256 -14q-45 0 -45 28t45 27l114 -8q80 0 96 58q15 58 15 312v764q-2 113 -17 146t-73 33l-142 -9q-51 0 -51 31t56 31l120 -6q85 -9 175 -9t385 9l368 6
q41 -1 61 -13t19 -53l-14 -221l14 -205q0 -66 -35 -65q-31 0 -30 65l10 269q0 118 -34 142t-179 23h-432q-101 0 -121 -15t-21 -93v-447q0 -49 7 -60t42 -11h277q94 0 130 36t34 109l-10 144q-1 57 29 57t30 -62l-14 -270l14 -340q0 -59 -30 -59t-29 69l10 166
q0 107 -164 107z" />
    <glyph glyph-name="G" unicode="G" horiz-adv-x="1540" 
d="M168 686q0 -316 158 -500t405 -184q118 0 205 37q88 37 138 82t85 125t35 180t-19 141t-79 41l-148 -8q-51 0 -51 30t39 29l244 -14l299 14q45 1 45 -29t-51 -30l-119 8q-74 0 -91 -53t-18 -217l12 -272q0 -53 -32 -54q-33 0 -33 49l10 160h-4q-129 -266 -459 -266
q-299 0 -468 210q-169 209 -169 527t178 528t459 210q328 0 451 -271h4l-6 164q0 61 28 61t27 -41l-14 -292l14 -203q0 -51 -33 -51t-32 47l6 117q0 193 -126 307t-321 114q-249 0 -409 -190t-160 -506z" />
    <glyph glyph-name="H" unicode="H" horiz-adv-x="1654" 
d="M397 801q1 -33 9 -39t43 -6h763q33 0 40 6t8 37v182q0 254 -16 312t-95 59l-115 -9q-45 0 -45 28t45 28l256 -15l254 15q45 0 45 -28t-45 -28l-114 9q-80 0 -96 -58t-15 -313v-578q0 -254 15 -312t96 -58l114 8q45 0 45 -28t-45 -27l-254 14l-256 -14q-45 0 -45 28t45 27
l115 -8q80 0 95 58t16 312v281q0 18 -4 24t-21 5h-807q-26 1 -28 -11t-3 -28v-271q-1 -254 15 -312t96 -58l115 8q45 0 45 -28t-45 -27l-254 14l-256 -14q-45 0 -45 28t45 27l114 -8q80 0 96 58q15 58 15 312v578q0 254 -15 312t-96 59l-114 -9q-45 0 -45 28t45 28l256 -15
l254 15q45 0 45 -28t-45 -28l-115 9q-80 0 -95 -58t-16 -313v-180z" />
    <glyph glyph-name="I" unicode="I" horiz-adv-x="733" 
d="M397 981v-578q-1 -254 15 -312t96 -58l115 8q45 0 45 -28t-45 -27l-254 14l-256 -14q-45 0 -45 28t45 27l114 -8q80 0 96 58q15 58 15 312v578q0 254 -15 312t-96 59l-114 -9q-45 0 -45 28t45 28l256 -15l254 15q45 0 45 -28t-45 -28l-115 9q-80 0 -96 -58t-15 -313z" />
    <glyph glyph-name="J" unicode="J" horiz-adv-x="1269" 
d="M995 639q0 -225 -13 -318t-46 -151q-123 -215 -447 -215q-197 0 -329 90t-131 258q1 111 67 187t166 75q61 1 95 -27t34 -64q1 -36 -21 -60t-52 -25t-46 17t-16 37t14 38l13 19q0 18 -50 18q-49 0 -101 -57t-52 -152q0 -133 102 -220t282 -87t302 65q162 86 169 401
q1 44 1 130v311q0 326 -13 384t-94 59l-110 -9q-47 0 -47 28t45 28l256 -15l256 15q37 0 37 -28t-45 -28l-119 9q-80 0 -93 -58t-14 -385v-270z" />
    <glyph glyph-name="K" unicode="K" horiz-adv-x="1615" 
d="M1620 16q0 -31 -43 -30l-256 14l-256 -14q-45 0 -45 28t55 27l131 -8q68 0 68 26q0 14 -96 146l-408 557q-18 26 -32 26t-36 -20l-282 -256q-16 -14 -20 -30t-3 -174q-1 -159 15 -217t96 -58l115 8q45 0 45 -28t-45 -27l-254 14l-256 -14q-45 0 -45 28t45 27l114 -8
q80 0 96 58q15 58 15 312v578q0 254 -15 312t-96 59l-114 -9q-45 0 -45 28t45 28l256 -15l254 15q45 0 45 -28t-45 -28l-115 9q-80 0 -95 -58t-16 -313v-422l443 393q381 338 381 373q0 27 -47 27l-152 -9q-63 0 -64 27q0 29 46 29l256 -15l256 15q43 0 43 -29
q0 -24 -50 -27l-106 9q-35 0 -65 -20t-128 -109l-393 -355q-23 -20 -22 -32t221 -316q221 -302 272 -366q88 -109 143 -118q19 -3 50 -3l98 8q41 0 41 -25z" />
    <glyph glyph-name="L" unicode="L" 
d="M397 236q0 -137 12 -165t78 -28h377q223 0 276 28q52 28 52 160l-8 232q0 29 10 47t23 18q31 0 31 -44t-8 -114q-7 -70 -7 -143l14 -184q0 -33 -14 -45t-66 -12l-854 14q-12 0 -116 -6q-66 -8 -84 -8q-57 0 -58 30q0 35 51 35l142 -8q66 0 78 46t12 286v606
q0 254 -15 312t-96 59l-114 -9q-45 0 -45 28t45 28l256 -15l254 15q45 0 45 -28t-45 -28l-115 9q-80 0 -95 -58t-16 -313v-745z" />
    <glyph glyph-name="M" unicode="M" horiz-adv-x="1925" 
d="M1860 1371q0 -28 -45 -28l-119 9q-76 0 -91 -58t-16 -313v-578q-1 -254 15 -312t96 -58l115 8q45 0 45 -28t-45 -27l-254 14l-256 -14q-45 0 -45 28t45 27l114 -8q80 0 95 58t16 312v879q0 27 -15 27t-30 -35l-465 -1217q-25 -63 -62 -63t-61 63l-453 1233q-10 25 -28 25
t-19 -23v-889q-1 -254 15 -312t96 -58l115 8q45 0 45 -28t-45 -27l-254 14l-256 -14q-45 0 -45 28t45 27l114 -8q80 0 96 58q15 58 15 312v578q0 254 -15 312t-92 59l-118 -9q-45 0 -45 28t43 28t95 -7t81 -8l127 9q29 -1 44 -19t29 -57l457 -1235q8 -20 17 -21q12 0 18 25
l461 1231q14 39 29 57t44 19l127 -9l175 15q45 0 45 -28z" />
    <glyph glyph-name="N" unicode="N" horiz-adv-x="1654" 
d="M1348 981v-895q0 -65 -14 -85q-14 -19 -38 -19q-41 -1 -90 77l-782 1244q-10 23 -18 23t-9 -30v-893q-1 -254 15 -312t96 -58l115 8q45 0 45 -28t-45 -27l-254 14l-256 -14q-45 0 -45 28t45 27l114 -8q80 0 96 58q15 58 15 312v578q0 254 -15 312t-92 59l-118 -9
q-45 0 -45 28t45 28l174 -15l106 9q23 -1 38 -13t48 -65l776 -1229q8 -14 23 -14q10 0 10 22v887q0 254 -15 312t-95 59l-115 -9q-45 0 -45 28t45 28l256 -15l254 15q45 0 45 -28t-45 -28l-115 9q-80 0 -95 -58t-15 -313z" />
    <glyph glyph-name="O" unicode="O" horiz-adv-x="1423" 
d="M168 716q0 -158 33 -278q74 -272 266 -378q105 -58 243 -58t244 58q190 104 267 378q33 120 33 278t-55 310q-54 152 -181 254t-307 102q-179 0 -307 -102t-182 -254t-54 -310zM102 693q0 194 65 358q65 163 206 271t338 108t338 -108q270 -207 270 -630
q-1 -419 -271 -629q-140 -109 -337 -109t-338 109q-271 209 -271 630z" />
    <glyph glyph-name="P" unicode="P" horiz-adv-x="1347" 
d="M397 707q-1 -35 15 -47t69 -13h275q172 0 258 31t143 103q57 73 57 210q0 360 -426 361l-329 -13q-39 0 -50 -17t-12 -79v-536zM1280 994q0 -194 -123 -292t-354 -98h-371q-20 0 -28 -8t-7 -31v-162q-1 -254 15 -312t96 -58l115 8q45 0 45 -28t-45 -27l-254 14l-256 -14
q-45 0 -45 28t45 27l114 -8q80 0 96 58q15 58 15 312v578q0 254 -15 312t-96 59l-114 -9q-45 0 -45 28t45 28l256 -15l434 15q231 1 354 -105t123 -300z" />
    <glyph glyph-name="Q" unicode="Q" horiz-adv-x="1423" 
d="M706 375q-104 0 -159 -52t-55 -130q0 -190 239 -191q78 0 166 31q2 190 -43 266q-44 76 -148 76zM683 422q142 0 206 -77q63 -77 63 -282q156 84 229 255q73 172 73 364t-55 344q-54 152 -181 254t-307 102q-179 0 -307 -102q-236 -188 -236 -588q0 -238 91 -410
t241 -235l4 4q-64 53 -64 157t79 159t164 55zM102 694q0 194 65 357t206 271t338 108t338 -108q270 -207 270 -630q0 -158 -41 -289q-66 -210 -221 -332q-55 -44 -105 -63q10 -244 36 -308t144 -65q118 0 146 80q20 56 20 107v60q0 38 25 38q33 0 33 -73q0 -130 -52 -192
q-52 -63 -172 -64q-119 -1 -176 58q-37 38 -50 190q-3 46 -7 149q-109 -33 -188 -33q-197 1 -338 109t-206 272t-65 358z" />
    <glyph glyph-name="R" unicode="R" horiz-adv-x="1579" 
d="M504 727h358q385 0 385 313q0 183 -134 253q-72 39 -161 49q-90 10 -181 10q-293 0 -326 -37q-17 -20 -17 -113v-434q0 -29 14 -35t62 -6zM780 684h-266q-58 0 -72 -13t-14 -50v-218q0 -254 15 -312t96 -58l114 8q45 0 45 -28t-45 -27l-254 14l-256 -14q-45 0 -45 28
t45 27l115 -8q80 0 95 58t16 312v578q1 254 -15 312t-96 59l-115 -9q-45 0 -45 28t45 28l256 -15l435 15q250 0 364 -96t115 -259q0 -281 -305 -342v-4q139 -41 185 -126t46 -264t26 -227t95 -48l133 8q45 0 45 -28t-45 -27l-76 6l-84 -6q-92 0 -126 68q-33 68 -33 273
q0 206 -52 260q-71 74 -178 88q-68 9 -164 9z" />
    <glyph glyph-name="S" unicode="S" horiz-adv-x="1230" 
d="M604 1382q-104 0 -182 -32q-136 -57 -183 -194q-48 -137 5 -240q70 -135 275 -164q51 -9 127 -16t122 -14q47 -7 124 -31q77 -25 117 -59q39 -34 71 -102t32 -148q0 -148 -100 -280q-50 -66 -148 -106t-217 -41q-119 1 -203 23t-137 64t-79 72t-54 74h-4q14 -128 14 -164
t-32 -36q-14 0 -24 17q-9 17 -9 38l14 252l-14 248q0 41 30 41t29 -35l-6 -121q0 -325 285 -404q76 -22 164 -22q217 0 321 113t105 260q0 217 -193 273q-86 25 -227 36q-475 35 -475 350q0 162 122 279q123 117 328 117q142 0 248 -60t145 -182h4q3 70 -2 111q-4 41 -4 49
q0 51 29 51t29 -51l-15 -256l15 -199q-1 -17 -11 -29t-22 -12q-29 0 -29 43l6 86q0 193 -103 297t-288 104z" />
    <glyph glyph-name="T" unicode="T" 
d="M1022 1341h-250q-60 0 -74 -12t-14 -76v-850q0 -254 15 -312t96 -58l114 8q45 0 45 -28t-45 -27l-254 14l-256 -14q-45 0 -45 28t45 27l115 -8q80 0 95 58t16 312v850q1 63 -13 75t-75 13h-250q-113 -1 -132 -37t-20 -229l10 -182q-1 -51 -33 -51t-32 49l14 188l-14 269
q0 51 76 51l497 -15l500 15q76 0 76 -51l-15 -269l15 -188q0 -49 -33 -49t-33 51l11 182q0 193 -20 229t-132 37z" />
    <glyph glyph-name="U" unicode="U" horiz-adv-x="1579" 
d="M352 479q0 -88 3 -131q8 -115 85 -205q127 -141 344 -141q98 0 198 35t158 100q56 65 72 121t15 172v551q1 254 -15 312t-96 59l-115 -9q-45 0 -45 28t45 28l256 -15l254 15q45 0 45 -28t-45 -28l-114 9q-80 0 -95 -58t-16 -313v-547q0 -122 -20 -198t-88 -142
q-145 -139 -381 -139q-109 0 -217 37q-108 36 -174 108q-68 72 -91 148t-22 196v537q0 254 -15 312t-96 59l-114 -9q-45 0 -45 28t45 28l256 -15l254 15q45 0 45 -28t-45 -28l-115 9q-80 0 -95 -58t-16 -313v-502z" />
    <glyph glyph-name="V" unicode="V" horiz-adv-x="1347" 
d="M684 -41q-29 0 -47 49l-424 1178q-41 118 -63 142t-78 24l-62 -9q-47 0 -47 28t43 28l197 -15l254 15q37 0 37 -27q0 -10 -14 -19t-27 -10l-113 9q-96 0 -96 -47q0 -29 32 -119l392 -1098q8 -18 12 -18q10 0 16 20l375 1096q29 86 29 106q0 59 -92 60l-119 -9
q-47 0 -47 28t43 28l260 -15l196 15q43 0 43 -25q0 -31 -47 -31l-61 9q-58 0 -78 -24t-61 -142l-404 -1157q-25 -70 -49 -70z" />
    <glyph glyph-name="W" unicode="W" horiz-adv-x="1771" 
d="M1229 -41q-35 0 -53 74l-275 1241q-6 25 -18 24q-10 0 -21 -30l-276 -1200q-16 -66 -28 -88t-36 -21q-35 0 -53 80l-254 1159q-23 104 -37 129t-55 25l-80 -9q-55 0 -55 28t39 28l196 -15l266 15q37 0 37 -28t-47 -28l-123 9q-88 0 -88 -58q0 -25 17 -100l227 -1094
q4 -28 11 -28t16 39l278 1218q11 45 25 59t43 15q29 -1 40 -17t25 -77l264 -1196q12 -41 20 -41t15 39l240 1065q18 82 18 106q-1 24 -23 48q-22 22 -73 22l-117 -9q-51 0 -51 28t47 28l228 -15l221 15q45 0 45 -28t-41 -28l-57 9q-56 0 -84 -24t-46 -105l-266 -1182
q-10 -47 -23 -65t-38 -17z" />
    <glyph glyph-name="X" unicode="X" horiz-adv-x="1540" 
d="M375 1321q0 -22 53 -92l309 -404q23 -31 35 -31t35 31l301 406q53 72 53 88q0 31 -69 33l-150 -9q-51 0 -51 28t45 28l268 -15l223 15q49 0 50 -25q-1 -12 -15 -21t-32 -10l-103 9q-39 0 -65 -18t-72 -83l-363 -487q-16 -23 -16 -32t16 -32l396 -524q90 -121 137 -137
q18 -6 47 -6l96 8q45 0 45 -28t-47 -27q-14 0 -90 7t-129 7l-291 -14q-43 0 -43 28t49 27l127 -8q98 1 98 27t-57 100l-362 481q-21 29 -33 29t-35 -31l-346 -471q-63 -86 -63 -107q0 -29 90 -28l112 8q61 0 62 -29q0 -27 -47 -26l-264 14l-242 -14q-43 0 -43 28t49 27
l102 -8q31 0 47 6q44 16 148 154l375 507q16 20 16 30t-16 34l-377 489q-49 61 -74 79t-65 20l-103 -9q-49 0 -49 28t51 28l226 -15l278 15q45 0 45 -28t-65 -28l-146 9q-61 0 -61 -31z" />
    <glyph glyph-name="Y" unicode="Y" 
d="M686 541v-234q0 -180 18 -227t91 -47l114 8q45 0 45 -28t-45 -27l-254 14l-266 -14q-43 0 -43 26q0 12 14 20t31 9l117 -8q51 0 73 16q44 32 46 275v223q0 29 -13 49l-411 668q-33 53 -55 70t-56 18l-102 -9q-51 0 -51 28t53 28l215 -15l244 15q41 0 41 -25
q0 -12 -16 -21t-32 -10l-161 9q-47 0 -47 -19q0 -6 22 -45l369 -610q20 -31 34 -31t33 31l344 553q47 74 47 92q0 29 -71 29l-129 -9q-68 0 -68 28t47 28l248 -15l215 15q41 0 41 -28t-53 -28l-80 9q-37 0 -55 -16t-54 -74l-426 -672q-14 -23 -14 -49z" />
    <glyph glyph-name="Z" unicode="Z" 
d="M236 1384h843q86 0 95 -13q10 -13 10 -33t-35 -64l-967 -1192q-22 -22 -22 -28t47 -7h784q80 0 103 33t22 135l-10 254q0 63 33 63t32 -65l-14 -234l14 -190q0 -20 -12 -31t-57 -12h-934q-78 0 -78 41q0 15 8 27t49 63l940 1157q23 23 23 41q0 8 -39 8h-766q-41 0 -58 -5
q-44 -13 -44 -136l10 -250q0 -25 -10 -39t-23 -14q-33 0 -33 74l15 202l-15 146q-1 49 17 59t72 10z" />
    <glyph glyph-name="bracketleft" unicode="[" horiz-adv-x="692" 
d="M601 -412l-228 15l-189 -15q-43 0 -43 60l6 223v1276l-6 223q0 59 43 60l189 -15q53 0 117 7q64 8 111 8q46 0 46 -32t-53 -32l-139 8h-154q-66 0 -80 -19t-14 -104v-1484q0 -83 14 -103t80 -20h154l139 8q53 0 53 -32t-46 -32z" />
    <glyph glyph-name="backslash" unicode="\" horiz-adv-x="845" 
d="M135 1452q17 0 27 -14t133 -350t353 -891t231 -579q0 -24 -31 -24t-43 28q-13 28 -115 302t-346 877t-244 614q0 37 35 37z" />
    <glyph glyph-name="bracketright" unicode="]" horiz-adv-x="692" 
d="M91 1430l228 -15l189 15q43 0 43 -60l-6 -223v-1276l6 -223q0 -59 -43 -60l-189 15q-53 0 -117 -7q-64 -8 -111 -8q-46 0 -46 32t53 32l140 -8h153q66 0 80 19t14 104v1484q0 83 -14 103t-80 20h-153l-140 -8q-53 0 -53 32t46 32z" />
    <glyph glyph-name="asciicircum" unicode="^" horiz-adv-x="1228" 
d="M934 637l-320 680l-319 -680h-66l353 747h65l352 -747h-65z" />
    <glyph glyph-name="underscore" unicode="_" horiz-adv-x="1024" 
d="M0 -154h1024v-102h-1024v102z" />
    <glyph glyph-name="grave" unicode="`" horiz-adv-x="1040" 
d="M647 1208q1 -18 -17 -18t-36 14l-279 195q-37 27 -36 43q0 27 26 26q12 0 49 -24l273 -203q20 -15 20 -33z" />
    <glyph glyph-name="a" unicode="a" horiz-adv-x="1155" 
d="M831 414v204q0 23 -5 23q-7 0 -16 -13q-42 -59 -117 -81q-75 -21 -221 -29t-242 -64t-95 -208q0 -111 92 -172t199 -62q156 0 281 111q124 111 124 291zM887 707v-408q0 -176 16 -221t42 -55q27 -11 64 -11t74 42t31 116t-2 109t10 44t19 9q29 0 28 -62q1 -156 -33 -228
t-138 -73q-104 0 -134 77q-23 56 -30 163h-5q-33 -49 -59 -81q-83 -104 -195 -137q-72 -22 -163 -22q-145 0 -241 81q-95 81 -95 200q0 166 110 236t298 79q189 8 260 56q32 20 57 62t24 97q0 88 -70 161q-71 73 -225 73t-242 -65t-87 -150q0 -35 18 -35q2 0 10 14
q25 43 62 43q65 0 65 -67q0 -37 -28 -63q-28 -25 -72 -25q-43 0 -79 36t-36 86q-1 109 103 189t274 80q369 0 369 -350z" />
    <glyph glyph-name="b" unicode="b" horiz-adv-x="1193" 
d="M1051 482q0 212 -81 362q-42 78 -122 124t-189 46q-168 0 -272 -119q-61 -70 -86 -154q-25 -85 -25 -285t94 -322t275 -122q140 0 261 93q65 50 105 154q40 105 40 223zM223 1110q0 194 -11 232t-73 38l-135 -8q-41 0 -41 28t35 27l131 -8l115 8q22 0 28 -10t7 -33v-583
h4q119 256 381 256q182 0 314 -138q132 -137 132 -401t-127 -406t-336 -143q-250 0 -364 236h-4l6 -172q0 -47 -34 -47t-34 39v2l6 272v811z" />
    <glyph glyph-name="c" unicode="c" horiz-adv-x="1077" 
d="M141 512q0 -230 115 -366q115 -134 319 -134q90 0 160 29t106 65q81 82 95 197q2 53 25 53q33 0 33 -35q-1 -82 -48 -162q-110 -190 -362 -190q-128 0 -228 47t-158 125q-116 157 -116 379t136 380t368 157q168 0 278 -91t109 -218q0 -74 -39 -115t-82 -41t-67 22
q-23 22 -23 52q0 31 19 48t43 17t43 -16q19 -17 27 -17t18 18q9 18 10 42q0 90 -86 173t-246 83q-201 0 -325 -136t-124 -366z" />
    <glyph glyph-name="d" unicode="d" horiz-adv-x="1230" 
d="M903 479q0 127 -7 193q-17 159 -96 250q-79 92 -249 92t-290 -144t-120 -378t124 -357t282 -123t254 109q61 71 81 151t21 207zM954 1384v-1077q0 -195 12 -231t74 -37l136 8q18 0 28 -9q10 -8 10 -18t-9 -19t-23 -9l-131 8l-109 -8q-43 0 -43 92v98h-4
q-133 -213 -348 -213t-340 150q-125 151 -125 391t140 394t339 153q244 0 334 -207h4v260q0 194 -11 232t-73 38l-135 -8q-41 0 -41 28t35 27l131 -8l115 8q22 0 28 -10t6 -33z" />
    <glyph glyph-name="e" unicode="e" horiz-adv-x="1116" 
d="M195 582h727q35 0 34 32q0 114 -77 242q-41 68 -123 113t-184 45t-181 -36q-78 -36 -121 -87q-44 -51 -82 -129t-38 -148q0 -20 10 -26t35 -6zM932 532h-746q-28 0 -36 -9t-9 -42q1 -186 105 -327t309 -142q156 0 255 79t124 181q12 50 20 70t23 20q27 0 27 -32t-22 -84
q-22 -53 -68 -119t-140 -112t-218 -46t-220 48q-168 84 -228 299q-26 89 -26 184q0 244 135 400t352 157q115 0 206 -47t141 -120q100 -146 100 -296q0 -54 -37 -59q-14 -3 -47 -3z" />
    <glyph glyph-name="f" unicode="f" horiz-adv-x="731" 
d="M313 381v549q0 35 -7 46t-30 11l-129 -8q-49 0 -49 28t37 27l135 -8q27 0 35 7t11 63q7 132 63 233q69 123 268 123q105 0 169 -48t65 -114q0 -38 -22 -66q-23 -28 -61 -28t-56 23q-17 23 -17 47q0 53 45 61q29 4 29 12q0 23 -46 47t-116 23q-147 0 -207 -87t-61 -247
q0 -35 8 -42t41 -7l219 8q55 0 55 -28t-57 -27l-213 8q-35 0 -44 -10t-9 -47v-549q0 -242 15 -295t99 -53l101 8q45 0 45 -28t-39 -27l-250 14l-248 -14q-39 0 -39 28t45 27l101 -8q84 0 99 53t15 295z" />
    <glyph glyph-name="g" unicode="g" horiz-adv-x="1232" 
d="M137 -88q0 -268 518 -268q256 0 365 83t108 191q0 270 -522 270q-248 0 -358 -78t-111 -198zM958 713q0 133 -87 217t-241 84t-238 -91q-85 -91 -85 -223t92 -208q93 -76 237 -76t233 82t89 215zM924 1040q0 -51 47 -145t47 -182q0 -147 -104 -243t-290 -97
q-188 0 -307 119q-67 0 -97 -32t-30 -69q0 -95 85 -123q113 -37 250 -37h98q276 -3 420 -73q145 -70 145 -234t-148 -244t-416 -79q-268 0 -407 84t-139 226t102 210q71 48 162 78v4q-211 29 -211 184q0 90 51 118t101 42q-35 73 -35 149q0 168 113 265q115 96 253 96
t267 -72q-10 37 -11 57q0 80 60 125t139 45q78 0 121 -44t43 -94t-28 -79q-27 -29 -59 -29t-50 19q-18 18 -18 44t16 42t34 16l31 -4q15 1 15 21t-27 43t-85 23t-98 -40q-40 -39 -40 -90z" />
    <glyph glyph-name="h" unicode="h" horiz-adv-x="1347" 
d="M1024 381v256q0 282 -148 349q-62 28 -159 28q-161 0 -269 -104t-108 -298v-231q0 -242 15 -295t100 -53l100 8q45 0 45 -28t-39 -27l-250 14l-248 -14q-39 0 -38 26q0 29 45 29l100 -8q84 0 99 53t16 295v729q1 194 -11 232t-73 38l-135 -8q-41 0 -41 28t34 27l131 -8
l115 8q23 0 29 -10t6 -33v-540h4q131 213 371 213t309 -133q55 -105 55 -256v-287q-1 -242 15 -295t100 -53l100 8q45 0 45 -28t-39 -27l-249 14l-248 -14q-39 0 -39 28t45 27l100 -8q84 0 100 53q15 53 15 295z" />
    <glyph glyph-name="i" unicode="i" horiz-adv-x="655" 
d="M254 1270q0 32 22 54t54 22t54 -22t22 -54t-23 -56q-23 -22 -53 -22t-54 22q-22 23 -22 56zM322 381v336q0 195 -12 233t-72 37l-136 -8q-41 0 -41 28t35 27l131 -8l115 8q23 0 29 -10t6 -33v-610q0 -242 15 -295t100 -53l100 8q45 0 45 -28t-39 -27l-250 14l-248 -14
q-39 0 -39 28t45 27l101 -8q83 0 99 53t16 295z" />
    <glyph glyph-name="j" unicode="j" horiz-adv-x="577" 
d="M254 1270q0 32 22 54t54 22t54 -22t22 -54t-23 -56q-23 -22 -53 -22t-54 22q-22 23 -22 56zM377 991v-1005q0 -211 -75 -303q-76 -93 -234 -93t-227 65t-68 138q0 41 26 69q27 28 63 28t54 -24q18 -22 18 -39q0 -45 -17 -55q-5 -3 -8 -5q-13 -9 -24 -9l-6 -2
q-23 -6 -22 -18q0 -31 51 -68t145 -37q141 0 205 78t64 275v731q0 195 -12 233t-72 37l-136 -8q-41 0 -41 28t35 27l131 -8l115 8q23 0 29 -10t6 -33z" />
    <glyph glyph-name="k" unicode="k" horiz-adv-x="1269" 
d="M645 640q0 -12 17 -34l317 -444q66 -90 89 -110q24 -19 83 -19l106 8q43 0 43 -28t-53 -27l-231 14l-242 -14q-45 0 -45 28t45 27l96 -8q92 0 93 37q0 25 -89 147l-249 348q-19 27 -31 27t-35 -21l-219 -194q0 -238 15 -291t100 -53l100 8q45 0 45 -28t-39 -27l-250 14
l-248 -14q-39 0 -38 26q0 29 45 29l100 -8q84 0 99 53t16 295v729q1 194 -11 232t-73 38l-135 -8q-41 0 -41 28t34 27l131 -8l115 8q23 0 29 -10t6 -33v-935l481 428q72 66 72 85t-12 25t-60 6l-100 -8q-18 0 -32 9q-13 9 -13 20q0 27 45 26l242 -14l237 14q41 0 41 -28
t-45 -27l-90 8q-51 0 -86 -20t-109 -86l-241 -215q-25 -20 -25 -32z" />
    <glyph glyph-name="l" unicode="l" horiz-adv-x="616" 
d="M285 381v729q1 194 -11 232t-73 38l-135 -8q-41 0 -41 28t34 27l131 -8l115 8q23 0 29 -10t6 -33v-1003q0 -242 15 -295t100 -53l100 8q45 0 45 -28t-39 -27l-250 14l-248 -14q-39 0 -38 26q0 29 45 29l100 -8q84 0 100 53t15 295z" />
    <glyph glyph-name="m" unicode="m" horiz-adv-x="2039" 
d="M1714 381v293q0 147 -50 234q-61 106 -251 106q-340 0 -340 -424v-209q-1 -242 15 -295t100 -53l100 8q45 0 45 -28t-39 -27l-250 14l-247 -14q-39 0 -39 28t45 27l100 -8q84 0 99 53t16 295v274q0 72 -8 123q-23 149 -128 203q-65 33 -165 33q-160 0 -250 -98t-90 -283
v-252q0 -242 15 -295t100 -53l100 8q45 0 45 -28t-39 -27l-250 14l-248 -14q-39 0 -39 28t45 27l101 -8q84 0 99 53t16 295v336q0 195 -12 233t-72 37l-136 -8q-41 0 -41 28t35 27l131 -8l115 8q23 0 29 -10t6 -33v-139h4q84 205 338 205q176 0 252 -82q37 -41 53 -72
t35 -80q77 166 206 210q67 24 154 24q187 0 269 -94t81 -234v-348q-1 -242 15 -295t100 -53l101 8q45 0 45 -28t-39 -27l-250 14l-248 -14q-39 0 -39 28t45 27l100 -8q84 0 100 53q15 53 15 295z" />
    <glyph glyph-name="n" unicode="n" horiz-adv-x="1425" 
d="M1100 381v209q0 208 -70 316t-263 108t-291 -112t-99 -308v-213q0 -242 15 -295t100 -53l100 8q45 0 45 -28t-39 -27l-250 14l-248 -14q-39 0 -39 28t45 27l101 -8q84 0 99 53t16 295v336q0 195 -12 233t-72 37l-136 -8q-41 0 -41 28t35 27l131 -8l115 8q23 0 29 -10
t6 -33v-157h4q109 223 385 223q223 0 306 -119t83 -340v-217q0 -242 15 -295t100 -53l100 8q45 0 45 -28t-39 -27l-250 14l-247 -14q-39 0 -39 28t45 27l100 -8q83 0 99 53t16 295z" />
    <glyph glyph-name="o" unicode="o" horiz-adv-x="1155" 
d="M1014 514q0 207 -120 353q-120 147 -316 147t-317 -146q-120 -146 -120 -354q0 -207 120 -354q120 -148 317 -148q196 0 316 148t120 354zM1073 514q0 -227 -136 -386t-359 -159t-360 159q-136 159 -136 386t136 385t360 158t359 -158q136 -158 136 -385z" />
    <glyph glyph-name="p" unicode="p" horiz-adv-x="1230" 
d="M1090 504q0 207 -79 349q-42 75 -122 118t-189 43q-170 0 -276 -121q-64 -74 -84 -158q-20 -85 -20 -245t16 -228q18 -68 65 -125t123 -91t140 -34t108 10t104 44q60 33 105 85t77 148q32 95 32 205zM268 -16v733q0 195 -11 233t-73 37l-135 -8q-41 0 -41 28t35 27
l131 -8l115 8q23 0 29 -10t6 -33v-172h4q111 238 374 238q119 0 209 -46q238 -122 238 -505q0 -123 -48 -246t-159 -207t-266 -84q-244 0 -348 201h-4v-186q0 -242 15 -295t99 -54l101 9q45 0 45 -28t-39 -28l-250 15l-248 -15q-39 0 -39 28t45 28l101 -9q84 -1 99 53
t15 296z" />
    <glyph glyph-name="q" unicode="q" horiz-adv-x="1155" 
d="M551 12q197 0 277 114t79 327v174q0 174 -85 280q-84 107 -278 107t-298 -150t-105 -345q0 -196 77 -338q42 -77 127 -123t206 -46zM905 -16v168h-4q-74 -130 -204 -165q-62 -17 -144 -18q-231 1 -351 145t-120 384q0 409 303 527q82 32 172 32q246 0 344 -193h4v156
q0 37 28 37t28 -35v-1038q0 -242 15 -295t99 -54l101 9q45 0 45 -28t-39 -28l-250 15l-248 -15q-39 0 -39 28t45 28l101 -9q84 -1 99 53t15 296z" />
    <glyph glyph-name="r" unicode="r" horiz-adv-x="1040" 
d="M377 991v-137h4q102 203 328 203q111 0 201 -65t89 -187q1 -76 -37 -125t-86 -49q-48 1 -65 23q-18 22 -18 50t18 44q17 16 35 16t36 -13t29 -14q12 0 21 24q8 24 8 54q0 78 -59 138t-176 61q-166 0 -247 -102t-81 -324v-207q0 -242 15 -295t100 -53l100 8q45 0 45 -28
t-39 -27l-250 14l-248 -14q-39 0 -39 28t45 27l101 -8q84 0 99 53t16 295v336q0 195 -12 233t-72 37l-136 -8q-41 0 -41 28t35 27l131 -8l115 8q23 0 29 -10t6 -33z" />
    <glyph glyph-name="s" unicode="s" horiz-adv-x="1040" 
d="M518 1014q-135 0 -220 -68t-85 -181q0 -112 72 -147q77 -38 343 -75q162 -23 229 -78q31 -25 55 -70t24 -104q0 -139 -111 -231t-286 -91q-111 0 -197 37t-119 73t-49 68h-4l6 -129q0 -45 -28 -45t-27 43l14 224l-14 194q0 51 28 51t27 -51l-6 -119q0 -137 105 -220
t265 -83t248 75t88 177t-53 150q-54 48 -196 70q-45 6 -129 18t-136 24t-105 40q-105 57 -104 189t106 217t253 85q96 0 169 -35t97 -65t51 -72h5l-7 102q0 57 33 57q23 0 23 -57l-15 -176l15 -158q0 -37 -28 -37t-28 33l7 70q0 97 -64 188q-32 47 -98 77t-154 30z" />
    <glyph glyph-name="t" unicode="t" horiz-adv-x="770" 
d="M281 887v-441q1 -233 39 -333t161 -101q55 0 95 24t60 52q38 56 41 162q1 31 1 82l-4 86q0 43 31 43t30 -43q0 -301 -61 -375t-194 -74q-132 0 -193 86t-62 277v555q0 68 -8 83t-51 15l-115 -8q-39 0 -39 28t39 27l49 -2q33 -4 52 -4q59 0 74 27t16 98q0 141 28 141
q23 0 23 -39l-8 -180q0 -33 18 -40q19 -7 65 -7t107 4l84 2q43 0 43 -28t-51 -27l-217 8q-39 0 -46 -15t-7 -83z" />
    <glyph glyph-name="u" unicode="u" horiz-adv-x="1347" 
d="M317 991v-612q0 -183 78 -275t248 -92q375 0 375 451v254q0 195 -11 233t-73 37l-135 -8q-41 0 -41 28t35 27l131 -8l114 8q23 0 29 -10t6 -33v-682q0 -195 11 -233t73 -37l135 8q41 0 41 -28t-35 -27l-131 8l-114 -8q-23 0 -29 10t-6 33v155h-4q-27 -60 -82 -115
q-106 -106 -305 -106t-282 109t-83 311v328q0 195 -11 233t-73 37l-135 -8q-41 0 -41 28t35 27l131 -8l115 8q23 0 29 -10t5 -33z" />
    <glyph glyph-name="v" unicode="v" horiz-adv-x="1193" 
d="M598 61q6 0 29 50l311 759q20 47 20 70q0 53 -86 53l-131 -8q-37 0 -36 25q0 31 43 30l239 -14l205 14q37 0 37 -28t-41 -27l-60 8q-48 -1 -76 -25t-69 -126l-334 -813q-20 -53 -49 -54q-33 0 -57 66l-340 819q-27 66 -36 84q-24 49 -73 49l-82 -8q-49 0 -49 25
q0 31 39 30l215 -14l248 14q37 0 37 -30q0 -25 -41 -25l-139 8q-80 0 -80 -49q-1 -28 30 -102l306 -744q14 -37 20 -37z" />
    <glyph glyph-name="w" unicode="w" horiz-adv-x="1654" 
d="M1164 -25q-38 0 -64 78l-248 828q-10 41 -22 41t-23 -37l-236 -836q-20 -74 -60 -74t-62 78l-230 819q-19 72 -39 97t-69 24l-72 -8q-47 0 -47 28t47 27l213 -14l221 14q43 0 43 -28t-57 -27l-131 8q-63 0 -64 -51q0 -20 12 -68l211 -751q13 -45 25 -45t23 41l239 850
q14 57 53 57q33 0 47 -47l265 -868q8 -33 24 -33t27 43l188 713q18 72 19 100q0 59 -105 59l-118 -8q-37 0 -37 27q0 12 13 20t32 8l221 -14l219 14q41 0 41 -28t-41 -27l-86 8q-39 1 -54 -23t-42 -124l-217 -797q-21 -74 -59 -74z" />
    <glyph glyph-name="x" unicode="x" 
d="M647 594q10 0 33 29l231 268q43 49 43 64t-17 27t-44 11l-121 -8q-41 0 -41 28t43 27l203 -14l229 14q43 0 43 -28q0 -10 -13 -18t-32 -9l-69 8q-33 -1 -69 -25t-53 -42t-57 -64l-245 -287q-21 -23 -21 -33t19 -32l338 -395q68 -82 124 -82l78 8q45 0 45 -28t-47 -27
l-213 14l-219 -14q-49 0 -49 28t49 27l125 -8q61 0 61 33q0 18 -47 71l-274 322q-25 31 -34 31t-34 -29l-250 -291q-68 -78 -67 -98q0 -39 65 -39l132 8q49 0 49 -28t-41 -27l-260 14l-203 -14q-37 0 -37 28t43 27l82 -8q35 0 59 19t86 91l314 367q18 23 18 33t-18 32
l-258 308q-66 78 -86 94t-58 16l-78 -8q-45 0 -45 28t52 27l221 -14l215 14q39 0 39 -28t-37 -27l-84 8q-113 0 -113 -43q1 -21 54 -84l206 -243q25 -29 35 -29z" />
    <glyph glyph-name="y" unicode="y" horiz-adv-x="1193" 
d="M592 43q8 0 18 27l320 780q28 66 28 92t-28 38q-29 13 -58 13l-120 -8q-43 0 -43 27q0 12 14 20t27 8l206 -14l220 14q12 0 24 -8t12 -20q0 -27 -51 -27l-57 8q-37 1 -57 -29t-72 -151l-354 -854q-81 -197 -179 -283t-229 -86t-203 66t-71 145q0 47 31 80q32 33 68 33
t56 -20t20 -50t-18 -48q-20 -19 -51 -19l-35 8q-12 0 -12 -21q0 -43 58 -87t142 -44t148 33q101 53 163 170q44 83 44 111q0 29 -14 63l-326 824q-27 68 -38 92t-37 46t-64 21l-58 -8q-8 0 -18 8t-10 19q0 29 41 28l194 -14l223 14q53 0 54 -28q0 -27 -49 -27l-121 8
q-84 0 -84 -47q-1 -26 30 -106l299 -770q9 -27 17 -27z" />
    <glyph glyph-name="z" unicode="z" horiz-adv-x="1116" 
d="M244 1026h645q90 0 96 -12t6 -37t-43 -68l-772 -815q-25 -33 -24 -37q0 -10 49 -10h633q74 -1 90 17t16 104l-8 213q0 57 30 57t29 -57l-8 -178l8 -154q0 -35 -20 -42t-86 -7h-692q-87 0 -99 13t-12 37t68 93l743 789q25 20 25 39q0 8 -52 8h-590q-57 0 -76 -13
q-32 -22 -32 -106l8 -174q0 -49 -29 -49t-28 49l8 111l-8 176q0 39 21 46q22 7 104 7z" />
    <glyph glyph-name="braceleft" unicode="{" horiz-adv-x="692" 
d="M346 930q0 -236 -37 -318t-123 -102v-4q86 -20 123 -102t37 -318q0 -60 -11 -162t-11 -158t22 -87q38 -57 85 -8q23 24 45 24t36 -13t14 -35t-19 -38t-50 -19q-87 -2 -141 56t-54 157q0 29 10 125t12 234t-23 209q-26 70 -97 98q-39 18 -39 40t31 34q77 26 104 99t25 211
t-13 234q-10 96 -10 125q0 100 53 158t142 55q31 -2 50 -18q19 -15 19 -37q0 -48 -57 -49q-16 0 -38 24q-47 51 -86 -9q-21 -32 -21 -87t11 -157t11 -162z" />
    <glyph glyph-name="bar" unicode="|" horiz-adv-x="409" 
d="M176 -512v2048h57v-2048h-57z" />
    <glyph glyph-name="braceright" unicode="}" horiz-adv-x="692" 
d="M346 930q0 60 11 162t11 157t-21 87q-22 32 -43 32t-43 -24q-23 -24 -45 -23q-22 0 -36 13t-14 35t19 38t51 18q88 2 141 -55t53 -158q0 -29 -10 -125t-12 -234t24 -208t96 -98q39 -18 39 -40t-30 -34q-79 -26 -105 -99q-45 -123 -12 -446q10 -96 10 -125
q0 -100 -53 -157t-141 -56q-30 2 -50 18t-20 38q0 48 57 49q16 0 38 -24q46 -51 86 8q22 32 22 87q1 54 -11 156t-12 164q0 236 37 318t123 102v4q-86 20 -123 102t-37 318z" />
    <glyph glyph-name="asciitilde" unicode="~" horiz-adv-x="1228" 
d="M406 616q72 0 236 -74t214 -75q92 0 176 127l39 -39q-37 -65 -96 -105t-119 -40t-223 74q-162 74 -221 75q-58 0 -120 -38t-97 -89l-37 37q32 57 104 102t144 45z" />
    <glyph glyph-name="uni00A0" unicode="&#xa0;" horiz-adv-x="655" 
 />
    <glyph glyph-name="exclamdown" unicode="&#xa1;" horiz-adv-x="884" 
d="M543 954q0 -42 -29 -72t-72 -30q-44 0 -72 30t-28 72t30 73q30 30 70 30t71 -30q30 -30 30 -73zM440 780q33 0 33 -51l8 -1079q0 -59 -37 -60q-39 0 -38 60l8 1079q0 51 26 51z" />
    <glyph glyph-name="cent" unicode="&#xa2;" 
d="M651 207v997q-302 -36 -371 -369q-53 -257 63 -458q43 -74 121 -120t187 -50zM707 -55q0 -47 -28 -47t-28 47v215q-203 6 -325 151t-123 388q0 243 121 384t327 168v224q0 45 28 45t28 -45v-224q109 -6 189 -42t118 -86q73 -94 73 -169q1 -75 -35 -120q-36 -46 -81 -46
t-69 23t-24 53t20 45q40 34 85 -1q23 -17 27 -17q27 0 26 59q0 90 -74 168q-75 78 -255 86v-997q299 12 344 274q6 41 11 53t21 13q25 0 25 -41q0 -177 -171 -283q-95 -59 -230 -63v-215z" />
    <glyph glyph-name="sterling" unicode="&#xa3;" 
d="M279 324q-66 0 -114 -48t-48 -111q0 -65 48 -115t137 -50t147 46q57 46 110 132q-169 146 -280 146zM913 821q59 0 60 -30q0 -25 -37 -25h-434q92 -154 129 -244t37 -162t-33 -159q133 -121 209 -161t137 -40q92 0 157 77q64 77 64 193t-57 170t-117 54t-102 -37
q-41 -37 -48 -89t-28 -53q-29 0 -29 39q0 66 52 132q53 66 153 65q100 0 169 -77t69 -199t-70 -222t-207 -100q-84 0 -165 42t-214 150q-109 -193 -309 -192q-115 0 -179 63q-64 62 -65 142t59 146t179 67q119 0 291 -135q20 61 20 112q0 145 -180 418h-225q-35 0 -35 28
t33 27h202q-72 152 -71 275q0 160 101 248t257 88t254 -72q100 -72 100 -191q0 -55 -22 -89t-55 -34q-31 0 -53 18q-22 17 -22 48t50 51q29 12 29 54q0 71 -77 119t-199 48t-212 -72t-90 -199q0 -128 84 -292h440z" />
    <glyph glyph-name="currency" unicode="&#xa4;" 
d="M276 704q0 -156 114 -266t266 -110t266 110q112 110 112 266q0 154 -112 264q-113 110 -266 110q-152 0 -266 -110q-114 -108 -114 -264zM172 180q-36 0 -37 34q0 16 29 44l160 162q-109 124 -109 284t109 279l-158 158q-31 31 -31 51q0 31 29 31q18 0 51 -33l158 -158
q123 106 285 106t280 -106l158 158q33 33 48 33q15 -1 23 -11q23 -31 -22 -71l-158 -158q109 -119 109 -281t-109 -282l160 -162q29 -26 29 -50t-29 -28q-20 0 -45 25l-164 166q-127 -105 -284 -105t-281 105l-164 -166q-19 -25 -37 -25z" />
    <glyph glyph-name="yen" unicode="&#xa5;" 
d="M655 651q18 0 33 29l285 545q43 80 43 92q0 35 -70 35l-129 -9q-68 0 -67 27q0 29 47 29l247 -15l216 15q41 0 40 -29q0 -27 -53 -27l-82 9q-33 0 -55 -23t-51 -74l-258 -469h385q39 0 39 -26t-43 -25h-410l-78 -143q-14 -29 -14 -49v-39h506q39 0 39 -26t-45 -25h-500
q2 -295 19 -357t96 -63l114 8q45 0 45 -28t-45 -27l-254 14l-266 -14q-43 0 -43 26q0 12 14 20t31 9l117 -8q78 0 95 62t20 358h-482q-41 0 -41 28q0 23 31 23h492v45q0 20 -15 49l-69 137h-398q-41 0 -41 29q0 23 31 22h381l-244 471q-25 49 -47 72q-23 23 -63 23l-99 -9
q-51 0 -51 28t53 28l215 -15l244 15q41 0 41 -28t-47 -28l-162 9q-49 0 -49 -27q1 -8 19 -45l301 -600q14 -29 32 -29z" />
    <glyph glyph-name="brokenbar" unicode="&#xa6;" horiz-adv-x="409" 
d="M176 666v716h57v-716h-57zM233 358v-716h-57v716h57z" />
    <glyph glyph-name="section" unicode="&#xa7;" 
d="M319 614q0 -86 76 -142t396 -222q221 117 221 270q0 96 -74 150t-391 215q-161 -82 -205 -171q-23 -47 -23 -100zM260 612q0 184 236 306q-162 88 -162 231q0 94 73 178q37 45 113 74t176 29q172 0 270 -76t97 -176q0 -57 -27 -82q-26 -25 -58 -25t-51 24q-19 25 -19 57
t35 54q36 22 36 41q0 55 -82 95t-213 40t-210 -70t-79 -161q0 -90 67 -142t227 -128q260 -124 322 -193t62 -166q0 -184 -227 -301q55 -37 84 -61q30 -24 62 -81q32 -58 32 -128q0 -139 -108 -218t-286 -79t-287 88q-108 88 -107 217q0 63 28 95q29 32 71 32t59 -23
q49 -66 -29 -122q-47 -35 -48 -64q-1 -61 91 -119t226 -57q134 0 231 62t97 173t-65 167q-67 55 -219 135t-221 116t-100 66q-77 74 -87 114q-10 39 -10 78z" />
    <glyph glyph-name="dieresis" unicode="&#xa8;" horiz-adv-x="1040" 
d="M627 1319q-1 31 23 55t58 25q34 0 56 -25q22 -26 22 -56t-22 -54t-56 -25q-34 1 -58 25t-23 55zM254 1319q0 31 24 55t58 25q34 0 56 -25q22 -26 22 -56t-23 -54t-57 -25q-34 1 -56 25q-24 24 -24 55z" />
    <glyph glyph-name="copyright" unicode="&#xa9;" horiz-adv-x="1576" 
d="M820 1108q-116 0 -190 -48q-110 -72 -146 -259q-11 -59 -11 -135t29 -160t107 -146q79 -61 197 -61t201 58t89 190q2 55 28 55t27 -33q0 -115 -84 -214q-83 -99 -269 -99t-283 128t-97 318t101 319q101 130 291 130t267 -141h4q-4 38 -4 74t29 36q20 0 20 -26
q0 -55 -6 -130t0 -119t6 -65q0 -29 -28 -28q-27 0 -27 34l4 78q0 102 -69 173q-70 71 -186 71zM1481 692q0 287 -203 489q-203 201 -490 201q-288 0 -490 -202t-202 -488t203 -488t489 -202t490 202q203 202 203 488zM1528 692q0 -307 -217 -522t-523 -215t-522 215
q-217 215 -217 522t217 522q217 216 522 216q304 0 522 -216t218 -522z" />
    <glyph glyph-name="ordfeminine" unicode="&#xaa;" horiz-adv-x="845" 
d="M758 688h-664q-27 0 -26 25q0 18 26 18h658q29 0 28 -20q0 -23 -22 -23zM545 1100v110q-55 -49 -135 -56q-200 -17 -234 -49q-33 -31 -34 -91q-1 -61 49 -88t133 -27q83 -1 152 53t69 148zM590 1257v-219q0 -57 2 -82q5 -65 57 -65q61 0 58 82v51q-1 39 23 39t24 -29
q0 -86 -20 -132t-85 -46q-100 0 -100 125h-4q-74 -125 -234 -125q-121 0 -169 50t-48 119t60 114t227 53q143 8 143 104q0 51 -42 86t-125 35t-130 -34t-47 -72q0 -8 2 -15q20 29 45 29q41 0 41 -43q0 -23 -18 -38t-45 -15t-49 20t-23 51q0 56 57 104t175 48q225 0 225 -195
z" />
    <glyph glyph-name="guillemotleft" unicode="&#xab;" horiz-adv-x="770" 
d="M633 178q0 -23 -25 -22q-14 0 -33 32l-194 326q-16 29 -16 38t16 36l194 325q18 33 33 33q25 0 25 -22q0 -8 -12 -33l-168 -303q-13 -25 -13 -37t13 -37l168 -303q12 -18 12 -33zM172 551q0 -12 12 -37l168 -303q12 -18 13 -33q0 -23 -25 -22q-14 0 -33 32l-194 326
q-17 29 -17 38t17 36l194 325q18 33 33 33q25 0 25 -22q-1 -8 -13 -33l-168 -303q-12 -25 -12 -37z" />
    <glyph glyph-name="logicalnot" unicode="&#xac;" horiz-adv-x="1228" 
d="M102 739h1024v-454h-57v397h-967v57z" />
    <glyph glyph-name="uni00AD" unicode="&#xad;" horiz-adv-x="499" 
d="M438 514h-383q-23 0 -39 10t-16 25q0 35 57 35h381q61 0 62 -35q-1 -35 -62 -35z" />
    <glyph glyph-name="registered" unicode="&#xae;" horiz-adv-x="1576" 
d="M1481 692q0 287 -203 489q-203 201 -490 201q-288 0 -490 -202t-202 -488t203 -488t489 -202t490 202q203 202 203 488zM1528 692q0 -307 -217 -522t-523 -215t-522 215q-217 215 -217 522t217 522q217 216 522 216q304 0 522 -216t218 -522zM1004 424v88q0 112 -56 146
t-186 34h-168q-33 0 -40 -5t-7 -25v-166q0 -119 10 -150t51 -31l72 9q37 0 37 -26t-35 -26q-14 0 -68 8t-93 9q-38 0 -92 -8t-69 -9q-35 0 -34 27q0 25 36 25l72 -9q41 0 51 31t11 150v383q0 147 -10 179t-52 32l-72 -9q-37 0 -36 27q0 25 34 25l162 -15l269 15
q313 0 313 -220q0 -88 -55 -142t-113 -62v-4q81 -28 102 -102q15 -55 15 -141t12 -118t49 -33q37 0 71 6t44 7q37 0 37 -26t-35 -26l-68 4l-69 -4q-90 0 -90 152zM547 1008v-236q0 -29 5 -35t36 -6h225q236 0 236 178q0 127 -127 162q-66 16 -193 16t-153 -8t-27 -18
q-2 -10 -2 -53z" />
    <glyph glyph-name="macron" unicode="&#xaf;" horiz-adv-x="1040" 
d="M805 1311h-578q-37 1 -37 27t39 26h576q45 0 45 -26t-45 -27z" />
    <glyph glyph-name="degree" unicode="&#xb0;" horiz-adv-x="819" 
d="M164 1139q0 -102 72 -174t174 -72t174 72t71 174q0 102 -71 174q-72 71 -174 71t-174 -72t-72 -173zM702 1139q0 -123 -85 -208t-207 -85t-208 85q-85 85 -85 208t85 208t208 85q124 0 208 -85t84 -208z" />
    <glyph glyph-name="plusminus" unicode="&#xb1;" horiz-adv-x="1228" 
d="M102 57h1024v-57h-1024v57zM1126 563h-483v-411h-57v411h-484v58h484v405h57v-405h483v-58z" />
    <glyph glyph-name="two.superior" unicode="&#xb2;" horiz-adv-x="860" 
d="M684 717q-12 0 -26 10q-13 9 -13 29q-1 20 17 32t46 12t53 -36q25 -37 25 -91q0 -53 -48 -105t-124 -52t-162 78t-173 78q-49 0 -84 -16q-62 -29 -62 -60q0 -2 4 -2h6q9 2 15 2t16 -11t10 -26q0 -39 -47 -39q-68 0 -67 98q0 203 216 289q54 23 128 41q214 52 256 130
q18 36 18 87q0 82 -64 143q-65 60 -204 60t-213 -58t-74 -118q0 -27 17 -27l32 11q16 0 26 -14t11 -36q0 -51 -69 -51q-25 0 -47 23t-21 67q0 90 91 168t248 78t237 -72t81 -168q0 -160 -191 -222q-46 -15 -122 -36q-311 -78 -315 -276h4q57 84 157 84q100 1 174 -63
q76 -64 104 -80t74 -16t84 36q36 37 36 90t-29 53q-19 -24 -31 -24z" />
    <glyph glyph-name="three.superior" unicode="&#xb3;" horiz-adv-x="860" 
d="M131 727q0 -63 84 -115t188 -51q156 0 237 74t81 168t-57 156t-187 63q-81 0 -109 -14l-30 -15q-16 0 -16 19q0 6 16 22l311 277q18 14 19 24q0 4 -21 4h-416q-41 0 -52 -9t-11 -50l8 -137q0 -37 -27 -37t-26 29l4 96l-4 121q0 33 33 32h520q66 0 66 -24t-29 -45
l-281 -250l4 -4q6 6 53 6q152 0 221 -74q68 -73 68 -185t-90 -202t-259 -90t-258 69t-89 154q0 49 27 80t77 31t52 -49q0 -47 -39 -47l-43 12q-10 0 -18 -12t-7 -27z" />
    <glyph glyph-name="acute" unicode="&#xb4;" horiz-adv-x="1040" 
d="M768 1442q0 -16 -37 -43l-278 -195q-17 -14 -35 -14t-18 18t20 33l272 203q37 25 49 24q27 0 27 -26z" />
    <glyph glyph-name="mu" unicode="&#xb5;" horiz-adv-x="1347" 
d="M317 991v-612q0 -183 78 -275t248 -92q375 0 375 451v254q0 195 -11 233t-73 37l-135 -8q-41 0 -41 28t35 27l131 -8l114 8q23 0 29 -10t6 -33v-682q0 -195 11 -233t73 -37l135 8q41 0 41 -28t-35 -27l-131 8l-114 -8q-23 0 -29 10t-6 33v155h-4q-27 -60 -82 -115
q-106 -106 -285 -106q-244 0 -334 168l-4 -4l21 -448q0 -37 -1 -53q-3 -41 -38 -42q-37 0 -37 95l8 704v328q0 195 -11 233t-73 37l-135 -8q-41 0 -41 28t35 27l131 -8l115 8q23 0 29 -10t5 -33z" />
    <glyph glyph-name="paragraph" unicode="&#xb6;" 
d="M578 80v483q0 27 -12 32t-58 5q-358 0 -358 387q0 205 103 306t249 102l272 -11h158l100 7q70 4 88 4q39 0 39 -27t-39 -27l-86 7q-74 0 -88 -58t-14 -185v-1025q0 -352 18 -398t86 -47l80 9q43 0 43 -28t-45 -28l-182 15l-119 -15q-20 0 -20 25q0 12 6 16q7 5 29 13
t28 25q18 51 18 413v1227q0 29 -13 33t-66 6h-84q-55 0 -65 -14t-11 -83v-1169q0 -334 8 -372q8 -36 15 -48t27 -19t26 -11t6 -17q0 -25 -21 -25l-118 15l-183 -15q-45 0 -45 27q0 10 12 19t31 10l80 -9q69 1 87 47t18 398z" />
    <glyph glyph-name="periodcentered" unicode="&#xb7;" horiz-adv-x="462" 
d="M332 512q0 -43 -31 -72q-31 -28 -70 -28t-69 28t-31 72q0 43 31 72q32 28 70 28t69 -28t31 -72z" />
    <glyph glyph-name="cedilla" unicode="&#xb8;" horiz-adv-x="1040" 
d="M553 -115q82 0 129 -39q47 -38 47 -102q-1 -64 -67 -104t-148 -39q-82 -1 -146 33t-65 67q-1 23 23 23t57 -40t118 -40t126 32t41 75q0 42 -36 67q-36 24 -88 24t-95 -21q-42 -21 -56 -8t-14 21t12 33l62 133h57l-55 -127q61 12 98 12z" />
    <glyph glyph-name="one.superior" unicode="&#xb9;" horiz-adv-x="860" 
d="M403 850v338q0 106 -11 135t-66 29l-84 -6q-39 0 -39 24t30 23l113 -9l82 9q27 0 27 -54v-489q0 -191 11 -230t38 -41q10 -1 31 -1l79 6q43 0 43 -26t-34 -26l-193 11l-192 -11q-35 0 -35 26t41 26l80 -6q55 0 67 38t12 234z" />
    <glyph glyph-name="ordmasculine" unicode="&#xba;" horiz-adv-x="845" 
d="M94 731h651q33 1 33 -21t-16 -22h-668q-27 0 -26 25q-1 18 26 18zM184 1153q0 -111 65 -185t175 -73q110 0 174 74q64 75 64 185t-65 184t-175 75q-110 -1 -174 -75t-64 -185zM133 1153q0 125 77 212t213 87t213 -87t77 -212t-76 -211t-213 -86t-214 86t-77 211z" />
    <glyph glyph-name="guillemotright" unicode="&#xbb;" horiz-adv-x="770" 
d="M137 178q0 14 13 33l167 303q12 25 13 37q0 12 -13 37l-167 303q-12 25 -13 33q0 23 25 22q15 0 33 -33l194 -325q17 -27 17 -36t-17 -38l-194 -326q-18 -33 -33 -32q-25 0 -25 22zM598 551q0 12 -12 37l-168 303q-12 25 -12 33q0 23 24 22q15 0 33 -33l194 -325
q17 -27 17 -36t-17 -38l-194 -326q-18 -33 -33 -32q-25 0 -24 22q0 14 12 33l168 303q12 25 12 37z" />
    <glyph glyph-name="onequarter" unicode="&#xbc;" horiz-adv-x="1638" 
d="M403 -27q-27 0 -26 31q1 8 27 60l56 112t302 579t301 593q37 61 47 63q25 0 25 -23t-288 -577q-289 -553 -357 -693t-74 -142q-6 -3 -13 -3zM319 850v338q0 106 -11 135t-66 29l-84 -6q-39 0 -39 24t31 23l112 -9l82 9q27 0 27 -54v-489q0 -191 11 -230t38 -41
q10 -1 31 -1l79 6q43 0 43 -26t-34 -26l-193 11l-192 -11q-35 0 -35 26t41 26l80 -6q55 0 67 38t12 234zM825 295h400q20 0 25 5t5 24v483q0 10 -8 0l-430 -494l-8 -12q0 -6 16 -6zM1255 164q0 78 -5 82q-5 6 -25 6h-428q-23 0 -39 8q-35 17 6 62l448 509q37 39 64 39
q31 1 31 -34v-512q0 -18 5 -24t25 -5q135 6 149 6t31 -13q16 -13 0 -24q-16 -12 -28 -12h-152q-20 0 -25 -5t-5 -83t10 -105t65 -26l66 6q29 0 29 -23q1 -8 -7 -17t-20 -9l-170 10l-168 -10q-27 0 -27 24t29 25l66 -6q55 1 65 27t10 104z" />
    <glyph glyph-name="onehalf" unicode="&#xbd;" horiz-adv-x="1638" 
d="M1040 1411q25 0 25 -23t-288 -577q-289 -553 -357 -693t-74 -142q-6 -3 -12 -3q-27 0 -27 31q1 8 27 60l56 112t264 508q236 448 302 584t72 140q6 3 12 3zM1442 214q0 20 17 32t45 12t54 -37t26 -91t-49 -105q-48 -51 -124 -51t-162 77q-86 78 -174 78q-49 0 -84 -16
q-35 -17 -48 -33t-13 -22t4 -7l8 2h8q10 0 20 -11t11 -26q0 -39 -47 -39q-68 0 -68 99q0 148 101 221q101 74 209 100q108 27 146 40q114 39 144 99q19 36 19 87q0 82 -65 142t-204 60q-138 0 -212 -58t-74 -118q0 -27 16 -26l33 10q17 -1 27 -15t10 -34q0 -51 -70 -52
q-24 0 -46 23t-21 68q0 90 91 168q91 77 248 77q158 0 238 -72t80 -167q0 -160 -191 -222q-46 -15 -122 -36q-311 -78 -316 -277h4q57 84 157 84t174 -63q75 -63 103 -79q27 -16 75 -18q48 0 84 37t36 90t-29 54q-24 -38 -56 -15q-13 10 -13 30zM250 850v338q0 106 -11 135
t-67 29l-84 -6q-39 0 -39 24t31 23l113 -9l81 9q27 0 27 -54v-489q0 -190 8 -220t21 -41t51 -11l80 6q43 0 43 -26t-35 -26l-193 11l-192 -11q-35 0 -35 26t41 26l80 -6q55 0 68 38q12 39 12 234z" />
    <glyph glyph-name="threequarters" unicode="&#xbe;" horiz-adv-x="1638" 
d="M530 -27q-27 0 -26 31q0 8 26 60t57 112q30 60 302 579t301 593q37 61 47 63q25 0 25 -23t-288 -577q-288 -553 -356 -693t-75 -142q-6 -3 -13 -3zM90 729q0 -63 84 -115t188 -51q156 0 237 74t81 167t-57 155t-187 63q-81 0 -109 -14l-30 -15q-16 0 -16 19q0 6 16 22
l311 277q18 14 19 24q0 4 -21 4h-416q-41 0 -52 -9t-11 -50l8 -137q0 -37 -27 -37t-26 29l4 96l-4 121q0 33 33 32h520q65 0 65 -24t-28 -45l-281 -250l4 -4q6 6 54 6q153 0 221 -74q68 -75 68 -185t-91 -200q-90 -90 -259 -90t-258 69t-89 154q0 47 27 78q28 31 78 31
t51 -49q0 -47 -39 -47l-43 12q-9 0 -17 -11t-8 -26zM942 295h399q20 0 26 5q5 5 5 24v483q0 10 -8 0l-430 -494l-8 -12q0 -6 16 -6zM1372 164q0 78 -5 82q-5 6 -26 6h-428q-55 0 -55 22t23 48l448 509q37 39 60 39q35 0 34 -39v-507q0 -18 5 -24t26 -5q136 6 150 6t24 -8
q10 -9 10 -17t-10 -16t-22 -8h-152q-20 0 -26 -5t-5 -83t11 -105t65 -26l66 6q29 0 28 -23q0 -8 -7 -17t-19 -9l-170 10l-168 -10q-27 0 -27 24t29 25l65 -6q55 0 66 26q10 27 10 105z" />
    <glyph glyph-name="questiondown" unicode="&#xbf;" horiz-adv-x="1193" 
d="M764 954q0 -42 -29 -72t-71 -30t-72 30q-29 30 -29 72t30 73q30 30 71 30q40 0 70 -30t30 -73zM745 56q0 40 37 71t106 31t126 -56t57 -147q0 -143 -131 -254t-369 -111q-133 0 -232 35q-170 60 -228 205q-25 59 -25 131q0 157 100 239t233 140q132 56 175 118t43 158
t5 124t24 28q24 0 30 -29t6 -88q0 -139 -54 -213t-183 -135q-80 -39 -120 -61t-93 -63q-102 -81 -101 -216t101 -230t317 -95t331 97t114 222q0 61 -35 106t-75 45t-40 -22l15 -45q-1 -27 -21 -45q-47 -41 -91 1q-22 19 -22 59z" />
    <glyph glyph-name="Agrave" unicode="&#xc0;" horiz-adv-x="1540" 
d="M565 1786q12 0 49 -25l273 -202q20 -15 20 -33t-18 -19q-17 1 -35 15l-279 194q-37 27 -36 43q0 27 26 27zM545 555h473q33 0 41 11t-2 44l-266 725l-283 -725q-12 -31 -5 -43t42 -12zM1235 94q0 41 -25 105l-106 278q-8 23 -16 29t-29 6h-553q-25 0 -34 -5t-17 -30
l-115 -295q-25 -66 -25 -82q0 -68 109 -67l106 8q49 0 50 -29q0 -27 -43 -26l-256 14l-256 -14q-27 0 -27 24q0 31 45 31l84 -8q57 0 90 32t74 138l438 1132q17 41 31 55t35 15q31 0 57 -68l311 -858q139 -385 187 -428q20 -18 59 -18l84 8q49 0 49 -29q0 -12 -15 -19
t-32 -7l-225 14l-238 -14q-55 0 -55 24q0 12 15 22t36 9l125 -8q82 0 82 61z" />
    <glyph glyph-name="Aacute" unicode="&#xc1;" horiz-adv-x="1540" 
d="M1012 1786q27 0 26 -27q0 -16 -37 -43l-278 -194q-18 -14 -35 -15q-18 0 -18 19t20 33l273 202q37 25 49 25zM545 555h473q33 0 41 11t-2 44l-266 725l-283 -725q-12 -31 -5 -43t42 -12zM1235 94q0 41 -25 105l-106 278q-8 23 -16 29t-29 6h-553q-25 0 -34 -5t-17 -30
l-115 -295q-25 -66 -25 -82q0 -68 109 -67l106 8q49 0 50 -29q0 -27 -43 -26l-256 14l-256 -14q-27 0 -27 24q0 31 45 31l84 -8q57 0 90 32t74 138l438 1132q17 41 31 55t35 15q31 0 57 -68l311 -858q139 -385 187 -428q20 -18 59 -18l84 8q49 0 49 -29q0 -12 -15 -19
t-32 -7l-225 14l-238 -14q-55 0 -55 24q0 12 15 22t36 9l125 -8q82 0 82 61z" />
    <glyph glyph-name="Acircumflex" unicode="&#xc2;" horiz-adv-x="1540" 
d="M497 1526q-19 0 -19 18t26 35l276 168q29 14 31 14t31 -14l276 -168q27 -16 27 -31q0 -23 -21 -22q-18 0 -32 10l-281 166l-281 -166q-14 -10 -33 -10zM545 555h473q33 0 41 11t-2 44l-266 725l-283 -725q-12 -31 -5 -43t42 -12zM1235 94q0 41 -25 105l-106 278
q-8 23 -16 29t-29 6h-553q-25 0 -34 -5t-17 -30l-115 -295q-25 -66 -25 -82q0 -68 109 -67l106 8q49 0 50 -29q0 -27 -43 -26l-256 14l-256 -14q-27 0 -27 24q0 31 45 31l84 -8q57 0 90 32t74 138l438 1132q17 41 31 55t35 15q31 0 57 -68l311 -858q139 -385 187 -428
q20 -18 59 -18l84 8q49 0 49 -29q0 -12 -15 -19t-32 -7l-225 14l-238 -14q-55 0 -55 24q0 12 15 22t36 9l125 -8q82 0 82 61z" />
    <glyph glyph-name="Atilde" unicode="&#xc3;" horiz-adv-x="1540" 
d="M940 1554q-43 0 -172 37t-152 37q-57 0 -102 -45q-20 -20 -30 -20t-9 10q-1 10 19 34q20 23 65 49t81 26t168 -34q134 -32 157 -32q73 0 105 34t44 34t12 -9q0 -8 -20 -35q-20 -26 -72 -56t-94 -30zM545 555h473q33 0 41 11t-2 44l-266 725l-283 -725q-12 -31 -5 -43
t42 -12zM1235 94q0 41 -25 105l-106 278q-8 23 -16 29t-29 6h-553q-25 0 -34 -5t-17 -30l-115 -295q-25 -66 -25 -82q0 -68 109 -67l106 8q49 0 50 -29q0 -27 -43 -26l-256 14l-256 -14q-27 0 -27 24q0 31 45 31l84 -8q57 0 90 32t74 138l438 1132q17 41 31 55t35 15
q31 0 57 -68l311 -858q139 -385 187 -428q20 -18 59 -18l84 8q49 0 49 -29q0 -12 -15 -19t-32 -7l-225 14l-238 -14q-55 0 -55 24q0 12 15 22t36 9l125 -8q82 0 82 61z" />
    <glyph glyph-name="Adieresis" unicode="&#xc4;" horiz-adv-x="1540" 
d="M897 1616q0 32 24 56q23 24 57 24t56 -25t23 -55q0 -30 -23 -56q-22 -24 -56 -24t-58 24t-23 56zM524 1616q0 32 24 56t58 24t56 -25t22 -55t-22 -56q-22 -24 -57 -24q-33 0 -57 24t-24 56zM545 555h473q33 0 41 11t-2 44l-266 725l-283 -725q-12 -31 -5 -43t42 -12z
M1235 94q0 41 -25 105l-106 278q-8 23 -16 29t-29 6h-553q-25 0 -34 -5t-17 -30l-115 -295q-25 -66 -25 -82q0 -68 109 -67l106 8q49 0 50 -29q0 -27 -43 -26l-256 14l-256 -14q-27 0 -27 24q0 31 45 31l84 -8q57 0 90 32t74 138l438 1132q17 41 31 55t35 15q31 0 57 -68
l311 -858q139 -385 187 -428q20 -18 59 -18l84 8q49 0 49 -29q0 -12 -15 -19t-32 -7l-225 14l-238 -14q-55 0 -55 24q0 12 15 22t36 9l125 -8q82 0 82 61z" />
    <glyph glyph-name="Aring" unicode="&#xc5;" horiz-adv-x="1540" 
d="M920 1642q0 47 -32 84t-85 37t-85 -37t-32 -84q0 -48 32 -84t85 -36t85 36t32 84zM975 1642q0 -70 -51 -120t-121 -49q-70 0 -121 50q-51 49 -51 119t51 120t121 50t121 -50t51 -120zM545 555h473q33 0 41 11t-2 44l-266 725l-283 -725q-12 -31 -5 -43t42 -12zM1235 94
q0 41 -25 105l-106 278q-8 23 -16 29t-29 6h-553q-25 0 -34 -5t-17 -30l-115 -295q-25 -66 -25 -82q0 -68 109 -67l106 8q49 0 50 -29q0 -27 -43 -26l-256 14l-256 -14q-27 0 -27 24q0 31 45 31l84 -8q57 0 90 32t74 138l438 1132q17 41 31 55t35 15q31 0 57 -68l311 -858
q139 -385 187 -428q20 -18 59 -18l84 8q49 0 49 -29q0 -12 -15 -19t-32 -7l-225 14l-238 -14q-55 0 -55 24q0 12 15 22t36 9l125 -8q82 0 82 61z" />
    <glyph glyph-name="AE" unicode="&#xc6;" horiz-adv-x="2310" 
d="M1223 799v456q0 72 -35 72q-18 0 -55 -51l-345 -467q-33 -47 -32 -59q0 -20 61 -21h330q51 -1 63 13t13 57zM1604 686h-269q-37 0 -45 -15t-8 -61v-436q0 -94 22 -112t117 -19h412q201 0 224 23q39 35 41 74q3 39 3 87l-10 224q0 61 33 61q12 0 22 -14t11 -39l-15 -197
l15 -203q0 -47 -27 -60t-82 -13l-850 14q-33 0 -125 -6q-61 -8 -76 -8q-57 0 -57 30q0 35 51 35l142 -8q45 0 63 20q18 19 22 55t5 136v381q-1 37 -13 44t-55 7h-397q-34 0 -54 -12t-53 -56l-370 -503q-33 -41 -33 -52q0 -31 65 -30l158 8q53 0 53 -28q0 -27 -33 -27t-137 8
t-151 6l-230 -14q-45 0 -45 28t47 27l113 -8q39 0 62 15t63 73l903 1216q41 55 90 56l154 -9q47 0 330 9l366 6q40 -1 60 -13t20 -53l-14 -221l14 -205q0 -74 -35 -73q-31 0 -30 73l10 269q0 118 -34 142t-179 23h-459q-86 1 -106 -27t-21 -169v-314q0 -43 2 -59
q5 -43 51 -43h291q135 0 135 125l-10 143q0 57 31 58q29 0 28 -62l-14 -270l14 -340q0 -59 -30 -59t-29 69l10 166q-1 71 -29 99t-128 28z" />
    <glyph glyph-name="Ccedilla" unicode="&#xc7;" horiz-adv-x="1347" 
d="M715 1382q-119 0 -212 -40t-151 -107q-120 -143 -152 -307q-32 -163 -32 -258q0 -325 168 -516q60 -68 158 -110t223 -42q193 0 329 115t136 351q0 50 32 50t31 -56q0 -136 -73 -260q-139 -247 -463 -247q-47 0 -64 2l-37 -84q61 12 121 12t107 -39q47 -38 47 -102
t-67 -104q-66 -40 -148 -39q-82 -1 -147 33t-64 67q0 23 26 23q20 0 53 -40q32 -40 118 -40t126 32t41 75q0 42 -36 67q-36 24 -88 24q-53 0 -89 -16t-48 -16t-19 8q-9 8 -9 15t13 34l47 98q-123 18 -216 85t-144 147q-50 80 -89 207t-40 277t35 278q82 293 300 407
q121 64 250 64t206 -24t127 -72t74 -81t54 -90h4l-6 160q0 61 28 61t27 -32l-14 -320l14 -213q0 -37 -32 -37t-31 41l6 135q0 144 -85 270q-46 70 -136 112t-209 42z" />
    <glyph glyph-name="Egrave" unicode="&#xc8;" horiz-adv-x="1425" 
d="M471 1759q0 27 27 27q12 0 49 -25l272 -202q21 -15 21 -33t-19 -19q-17 1 -35 15l-278 194q-37 27 -37 43zM709 705h-234q-55 1 -66 -15t-12 -74v-442q0 -94 22 -112t118 -19h411q201 0 224 23q39 35 41 74q3 39 4 87l-11 224q0 61 33 61q13 0 23 -14t10 -39l-15 -197
l15 -203q0 -47 -27 -60t-82 -13l-850 14q-33 0 -125 -6q-61 -8 -75 -8q-57 0 -58 30q0 35 51 35l142 -8q45 0 63 20q17 19 21 55t6 136v913q-2 111 -17 143t-73 31l-142 -8q-22 0 -36 10q-31 23 0 46q14 10 36 10l123 -6q89 -9 183 -9t389 9l370 6q41 -1 61 -13t19 -53
l-14 -221l14 -205q0 -74 -34 -73q-31 0 -31 73l10 269q0 118 -34 142t-179 23h-459q-86 1 -106 -27t-21 -169v-307q-1 -62 13 -76t77 -14h222q82 0 125 22t43 90l-11 144q0 57 30 57t30 -62l-15 -270l15 -340q0 -59 -30 -59t-30 69l11 166q0 82 -36 111t-132 29z" />
    <glyph glyph-name="Eacute" unicode="&#xc9;" horiz-adv-x="1425" 
d="M934 1786q27 0 27 -27q0 -16 -37 -43l-279 -194q-18 -14 -35 -15q-18 0 -18 19t20 33l273 202q37 25 49 25zM709 705h-234q-55 1 -66 -15t-12 -74v-442q0 -94 22 -112t118 -19h411q201 0 224 23q39 35 41 74q3 39 4 87l-11 224q0 61 33 61q13 0 23 -14t10 -39l-15 -197
l15 -203q0 -47 -27 -60t-82 -13l-850 14q-33 0 -125 -6q-61 -8 -75 -8q-57 0 -58 30q0 35 51 35l142 -8q45 0 63 20q17 19 21 55t6 136v913q-2 111 -17 143t-73 31l-142 -8q-22 0 -36 10q-31 23 0 46q14 10 36 10l123 -6q89 -9 183 -9t389 9l370 6q41 -1 61 -13t19 -53
l-14 -221l14 -205q0 -74 -34 -73q-31 0 -31 73l10 269q0 118 -34 142t-179 23h-459q-86 1 -106 -27t-21 -169v-307q-1 -62 13 -76t77 -14h222q82 0 125 22t43 90l-11 144q0 57 30 57t30 -62l-15 -270l15 -340q0 -59 -30 -59t-30 69l11 166q0 82 -36 111t-132 29z" />
    <glyph glyph-name="Ecircumflex" unicode="&#xca;" horiz-adv-x="1425" 
d="M398 1526q-20 0 -19 22q0 14 27 31l276 168q29 14 31 14t30 -14l277 -168q27 -16 27 -31q0 -23 -21 -22q-19 0 -33 10l-280 166l-281 -166q-14 -10 -34 -10zM709 705h-234q-55 1 -66 -15t-12 -74v-442q0 -94 22 -112t118 -19h411q201 0 224 23q39 35 41 74q3 39 4 87
l-11 224q0 61 33 61q13 0 23 -14t10 -39l-15 -197l15 -203q0 -47 -27 -60t-82 -13l-850 14q-33 0 -125 -6q-61 -8 -75 -8q-57 0 -58 30q0 35 51 35l142 -8q45 0 63 20q17 19 21 55t6 136v913q-2 111 -17 143t-73 31l-142 -8q-22 0 -36 10q-31 23 0 46q14 10 36 10l123 -6
q89 -9 183 -9t389 9l370 6q41 -1 61 -13t19 -53l-14 -221l14 -205q0 -74 -34 -73q-31 0 -31 73l10 269q0 118 -34 142t-179 23h-459q-86 1 -106 -27t-21 -169v-307q-1 -62 13 -76t77 -14h222q82 0 125 22t43 90l-11 144q0 57 30 57t30 -62l-15 -270l15 -340q0 -59 -30 -59
t-30 69l11 166q0 82 -36 111t-132 29z" />
    <glyph glyph-name="Edieresis" unicode="&#xcb;" horiz-adv-x="1425" 
d="M819 1616q0 32 24 56q23 24 57 24t56 -25t23 -55q0 -30 -23 -56q-22 -24 -56 -24t-58 24t-23 56zM446 1616q0 32 24 56t58 24t56 -25t22 -55t-22 -56q-22 -24 -57 -24q-33 0 -57 24t-24 56zM709 705h-234q-55 1 -66 -15t-12 -74v-442q0 -94 22 -112t118 -19h411
q201 0 224 23q39 35 41 74q3 39 4 87l-11 224q0 61 33 61q13 0 23 -14t10 -39l-15 -197l15 -203q0 -47 -27 -60t-82 -13l-850 14q-33 0 -125 -6q-61 -8 -75 -8q-57 0 -58 30q0 35 51 35l142 -8q45 0 63 20q17 19 21 55t6 136v913q-2 111 -17 143t-73 31l-142 -8
q-22 0 -36 10q-31 23 0 46q14 10 36 10l123 -6q89 -9 183 -9t389 9l370 6q41 -1 61 -13t19 -53l-14 -221l14 -205q0 -74 -34 -73q-31 0 -31 73l10 269q0 118 -34 142t-179 23h-459q-86 1 -106 -27t-21 -169v-307q-1 -62 13 -76t77 -14h222q82 0 125 22t43 90l-11 144
q0 57 30 57t30 -62l-15 -270l15 -340q0 -59 -30 -59t-30 69l11 166q0 82 -36 111t-132 29z" />
    <glyph glyph-name="Igrave" unicode="&#xcc;" horiz-adv-x="733" 
d="M135 1759q0 27 27 27q12 0 49 -25l272 -202q21 -15 21 -33t-19 -19q-16 1 -34 15l-279 194q-37 27 -37 43zM397 981v-578q-1 -254 15 -312t96 -58l115 8q45 0 45 -28t-45 -27l-254 14l-256 -14q-45 0 -45 28t45 27l114 -8q80 0 96 58q15 58 15 312v578q0 254 -15 312
t-96 59l-114 -9q-45 0 -45 28t45 28l256 -15l254 15q45 0 45 -28t-45 -28l-115 9q-80 0 -96 -58t-15 -313z" />
    <glyph glyph-name="Iacute" unicode="&#xcd;" horiz-adv-x="733" 
d="M588 1786q27 0 26 -27q0 -16 -36 -43l-279 -194q-18 -14 -35 -15q-18 0 -18 19t20 33l273 202q37 25 49 25zM397 981v-578q-1 -254 15 -312t96 -58l115 8q45 0 45 -28t-45 -27l-254 14l-256 -14q-45 0 -45 28t45 27l114 -8q80 0 96 58q15 58 15 312v578q0 254 -15 312
t-96 59l-114 -9q-45 0 -45 28t45 28l256 -15l254 15q45 0 45 -28t-45 -28l-115 9q-80 0 -96 -58t-15 -313z" />
    <glyph glyph-name="Icircumflex" unicode="&#xce;" horiz-adv-x="733" 
d="M62 1526q-20 0 -19 22q0 14 27 31l276 168q29 14 31 14t31 -14l276 -168q27 -16 27 -31q0 -23 -21 -22q-19 0 -33 10l-280 166l-281 -166q-14 -10 -34 -10zM397 981v-578q-1 -254 15 -312t96 -58l115 8q45 0 45 -28t-45 -27l-254 14l-256 -14q-45 0 -45 28t45 27l114 -8
q80 0 96 58q15 58 15 312v578q0 254 -15 312t-96 59l-114 -9q-45 0 -45 28t45 28l256 -15l254 15q45 0 45 -28t-45 -28l-115 9q-80 0 -96 -58t-15 -313z" />
    <glyph glyph-name="Idieresis" unicode="&#xcf;" horiz-adv-x="733" 
d="M473 1616q0 32 24 56q23 24 57 24t56 -25t23 -55q0 -30 -23 -56q-22 -24 -56 -24t-58 24t-23 56zM100 1616q0 32 24 56t58 24t56 -25t22 -55t-22 -56q-22 -24 -57 -24q-33 0 -57 24t-24 56zM397 981v-578q-1 -254 15 -312t96 -58l115 8q45 0 45 -28t-45 -27l-254 14
l-256 -14q-45 0 -45 28t45 27l114 -8q80 0 96 58q15 58 15 312v578q0 254 -15 312t-96 59l-114 -9q-45 0 -45 28t45 28l256 -15l254 15q45 0 45 -28t-45 -28l-115 9q-80 0 -96 -58t-15 -313z" />
    <glyph glyph-name="Eth" unicode="&#xd0;" horiz-adv-x="1540" 
d="M1438 671q0 -345 -201 -536q-92 -86 -200 -118t-298 -31l-370 14l-256 -14q-45 0 -45 28t45 27l114 -8q80 0 96 58q15 58 15 312v310h-227q-27 0 -37 10t0 21t37 12h227v225q0 254 -15 312t-96 59l-114 -9q-45 0 -45 28t45 28l256 -15l381 15q190 0 309 -41t201 -135
q178 -207 178 -552zM1372 652q0 590 -405 676q-112 24 -213 24t-202 -12q-102 -12 -118 -23q-16 -12 -26 -36t-11 -202v-323h461q27 0 37 -12t0 -21q-10 -10 -37 -10h-461v-398q1 -211 15 -237t85 -36q71 -9 201 -9t203 8q74 8 168 46t156 102q61 65 104 188t43 275z" />
    <glyph glyph-name="Ntilde" unicode="&#xd1;" horiz-adv-x="1654" 
d="M966 1554q-44 0 -172 37t-151 37q-57 0 -102 -45q-19 -20 -29 -20t-10 10t19 34q19 23 65 49t80 26q36 0 170 -34q134 -32 155 -32q74 0 106 34t44 34t12 -9q0 -8 -20 -35q-20 -26 -72 -56t-95 -30zM1348 981v-895q0 -65 -14 -85q-14 -19 -38 -19q-41 -1 -90 77
l-782 1244q-10 23 -18 23t-9 -30v-893q-1 -254 15 -312t96 -58l115 8q45 0 45 -28t-45 -27l-254 14l-256 -14q-45 0 -45 28t45 27l114 -8q80 0 96 58q15 58 15 312v578q0 254 -15 312t-92 59l-118 -9q-45 0 -45 28t45 28l174 -15l106 9q23 -1 38 -13t48 -65l776 -1229
q8 -14 23 -14q10 0 10 22v887q0 254 -15 312t-95 59l-115 -9q-45 0 -45 28t45 28l256 -15l254 15q45 0 45 -28t-45 -28l-115 9q-80 0 -95 -58t-15 -313z" />
    <glyph glyph-name="Ograve" unicode="&#xd2;" horiz-adv-x="1423" 
d="M471 1759q0 27 27 27q12 0 49 -25l272 -202q21 -15 21 -33t-19 -19q-17 1 -35 15l-278 194q-37 27 -37 43zM168 716q0 -158 33 -278q74 -272 266 -378q105 -58 243 -58t244 58q190 104 267 378q33 120 33 278t-55 310q-54 152 -181 254t-307 102q-179 0 -307 -102
t-182 -254t-54 -310zM102 693q0 194 65 358q65 163 206 271t338 108t338 -108q270 -207 270 -630q-1 -419 -271 -629q-140 -109 -337 -109t-338 109q-271 209 -271 630z" />
    <glyph glyph-name="Oacute" unicode="&#xd3;" horiz-adv-x="1423" 
d="M934 1786q27 0 27 -27q0 -16 -37 -43l-279 -194q-18 -14 -35 -15q-18 0 -18 19t20 33l273 202q37 25 49 25zM168 716q0 -158 33 -278q74 -272 266 -378q105 -58 243 -58t244 58q190 104 267 378q33 120 33 278t-55 310q-54 152 -181 254t-307 102q-179 0 -307 -102
t-182 -254t-54 -310zM102 693q0 194 65 358q65 163 206 271t338 108t338 -108q270 -207 270 -630q-1 -419 -271 -629q-140 -109 -337 -109t-338 109q-271 209 -271 630z" />
    <glyph glyph-name="Ocircumflex" unicode="&#xd4;" horiz-adv-x="1423" 
d="M398 1526q-20 0 -19 22q0 14 27 31l276 168q29 14 31 14t30 -14l277 -168q27 -16 27 -31q0 -23 -21 -22q-19 0 -33 10l-280 166l-281 -166q-14 -10 -34 -10zM168 716q0 -158 33 -278q74 -272 266 -378q105 -58 243 -58t244 58q190 104 267 378q33 120 33 278t-55 310
q-54 152 -181 254t-307 102q-179 0 -307 -102t-182 -254t-54 -310zM102 693q0 194 65 358q65 163 206 271t338 108t338 -108q270 -207 270 -630q-1 -419 -271 -629q-140 -109 -337 -109t-338 109q-271 209 -271 630z" />
    <glyph glyph-name="Otilde" unicode="&#xd5;" horiz-adv-x="1423" 
d="M852 1554q-43 0 -172 37t-152 37q-57 0 -102 -45q-20 -20 -30 -20t-9 10q-1 10 19 34q20 23 65 49t81 26t168 -34q134 -32 157 -32q73 0 105 34t44 34t12 -9q0 -8 -20 -35q-20 -26 -72 -56t-94 -30zM168 716q0 -158 33 -278q74 -272 266 -378q105 -58 243 -58t244 58
q190 104 267 378q33 120 33 278t-55 310q-54 152 -181 254t-307 102q-179 0 -307 -102t-182 -254t-54 -310zM102 693q0 194 65 358q65 163 206 271t338 108t338 -108q270 -207 270 -630q-1 -419 -271 -629q-140 -109 -337 -109t-338 109q-271 209 -271 630z" />
    <glyph glyph-name="Odieresis" unicode="&#xd6;" horiz-adv-x="1423" 
d="M819 1616q0 32 24 56q23 24 57 24t56 -25t23 -55q0 -30 -23 -56q-22 -24 -56 -24t-58 24t-23 56zM446 1616q0 32 24 56t58 24t56 -25t22 -55t-22 -56q-22 -24 -57 -24q-33 0 -57 24t-24 56zM168 716q0 -158 33 -278q74 -272 266 -378q105 -58 243 -58t244 58
q190 104 267 378q33 120 33 278t-55 310q-54 152 -181 254t-307 102q-179 0 -307 -102t-182 -254t-54 -310zM102 693q0 194 65 358q65 163 206 271t338 108t338 -108q270 -207 270 -630q-1 -419 -271 -629q-140 -109 -337 -109t-338 109q-271 209 -271 630z" />
    <glyph glyph-name="multiply" unicode="&#xd7;" horiz-adv-x="1228" 
d="M143 1022l471 -467l471 467l41 -45l-469 -463l469 -467l-41 -43l-471 469l-471 -469l-41 43l469 467l-469 463z" />
    <glyph glyph-name="Oslash" unicode="&#xd8;" horiz-adv-x="1423" 
d="M696 1430q182 0 314 -82l92 178q18 37 43 37q25 1 25 -25t-19 -57l-90 -168q127 -100 193 -266t65 -357q0 -190 -65 -354q-66 -164 -206 -273t-332 -109t-329 97l-100 -192q-13 -29 -21 -35t-21 -6t-23 10t-9 21q0 11 18 45l107 196q-115 102 -175 262t-61 340
q0 424 271 630q141 108 323 108zM692 2q293 0 428 211t133 479q0 174 -54 327t-163 247q-221 -400 -297 -540t-327 -628q124 -96 280 -96zM699 1382q-167 0 -295 -102q-236 -188 -236 -588q0 -164 49 -311t148 -242q238 442 347 640t273 524q-118 79 -286 79z" />
    <glyph glyph-name="Ugrave" unicode="&#xd9;" horiz-adv-x="1579" 
d="M549 1759q0 27 26 27q12 0 50 -25l272 -202q21 -15 21 -33t-19 -19q-17 1 -35 15l-278 194q-37 27 -37 43zM352 479q0 -88 3 -131q8 -115 85 -205q127 -141 344 -141q98 0 198 35t158 100q56 65 72 121t15 172v551q1 254 -15 312t-96 59l-115 -9q-45 0 -45 28t45 28
l256 -15l254 15q45 0 45 -28t-45 -28l-114 9q-80 0 -95 -58t-16 -313v-547q0 -122 -20 -198t-88 -142q-145 -139 -381 -139q-109 0 -217 37q-108 36 -174 108q-68 72 -91 148t-22 196v537q0 254 -15 312t-96 59l-114 -9q-45 0 -45 28t45 28l256 -15l254 15q45 0 45 -28
t-45 -28l-115 9q-80 0 -95 -58t-16 -313v-502z" />
    <glyph glyph-name="Uacute" unicode="&#xda;" horiz-adv-x="1579" 
d="M1032 1786q27 0 27 -27q0 -16 -37 -43l-279 -194q-18 -14 -34 -15q-18 0 -18 19t20 33l272 202q37 25 49 25zM352 479q0 -88 3 -131q8 -115 85 -205q127 -141 344 -141q98 0 198 35t158 100q56 65 72 121t15 172v551q1 254 -15 312t-96 59l-115 -9q-45 0 -45 28t45 28
l256 -15l254 15q45 0 45 -28t-45 -28l-114 9q-80 0 -95 -58t-16 -313v-547q0 -122 -20 -198t-88 -142q-145 -139 -381 -139q-109 0 -217 37q-108 36 -174 108q-68 72 -91 148t-22 196v537q0 254 -15 312t-96 59l-114 -9q-45 0 -45 28t45 28l256 -15l254 15q45 0 45 -28
t-45 -28l-115 9q-80 0 -95 -58t-16 -313v-502z" />
    <glyph glyph-name="Ucircumflex" unicode="&#xdb;" horiz-adv-x="1579" 
d="M476 1526q-20 0 -19 22q0 14 26 31l277 168q29 14 31 14t30 -14l277 -168q27 -16 26 -31q0 -23 -20 -22q-19 0 -33 10l-280 166l-281 -166q-14 -10 -34 -10zM352 479q0 -88 3 -131q8 -115 85 -205q127 -141 344 -141q98 0 198 35t158 100q56 65 72 121t15 172v551
q1 254 -15 312t-96 59l-115 -9q-45 0 -45 28t45 28l256 -15l254 15q45 0 45 -28t-45 -28l-114 9q-80 0 -95 -58t-16 -313v-547q0 -122 -20 -198t-88 -142q-145 -139 -381 -139q-109 0 -217 37q-108 36 -174 108q-68 72 -91 148t-22 196v537q0 254 -15 312t-96 59l-114 -9
q-45 0 -45 28t45 28l256 -15l254 15q45 0 45 -28t-45 -28l-115 9q-80 0 -95 -58t-16 -313v-502z" />
    <glyph glyph-name="Udieresis" unicode="&#xdc;" horiz-adv-x="1579" 
d="M897 1616q0 32 24 56q23 24 57 24t56 -25t23 -55q0 -30 -23 -56q-22 -24 -56 -24t-58 24t-23 56zM524 1616q0 32 24 56t58 24t56 -25t22 -55t-22 -56q-22 -24 -57 -24q-33 0 -57 24t-24 56zM352 479q0 -88 3 -131q8 -115 85 -205q127 -141 344 -141q98 0 198 35t158 100
q56 65 72 121t15 172v551q1 254 -15 312t-96 59l-115 -9q-45 0 -45 28t45 28l256 -15l254 15q45 0 45 -28t-45 -28l-114 9q-80 0 -95 -58t-16 -313v-547q0 -122 -20 -198t-88 -142q-145 -139 -381 -139q-109 0 -217 37q-108 36 -174 108q-68 72 -91 148t-22 196v537
q0 254 -15 312t-96 59l-114 -9q-45 0 -45 28t45 28l256 -15l254 15q45 0 45 -28t-45 -28l-115 9q-80 0 -95 -58t-16 -313v-502z" />
    <glyph glyph-name="Yacute" unicode="&#xdd;" 
d="M897 1786q27 0 27 -27q0 -16 -37 -43l-279 -194q-18 -14 -35 -15q-18 0 -18 19t20 33l273 202q37 25 49 25zM686 541v-234q0 -180 18 -227t91 -47l114 8q45 0 45 -28t-45 -27l-254 14l-266 -14q-43 0 -43 26q0 12 14 20t31 9l117 -8q51 0 73 16q44 32 46 275v223
q0 29 -13 49l-411 668q-33 53 -55 70t-56 18l-102 -9q-51 0 -51 28t53 28l215 -15l244 15q41 0 41 -25q0 -12 -16 -21t-32 -10l-161 9q-47 0 -47 -19q0 -6 22 -45l369 -610q20 -31 34 -31t33 31l344 553q47 74 47 92q0 29 -71 29l-129 -9q-68 0 -68 28t47 28l248 -15l215 15
q41 0 41 -28t-53 -28l-80 9q-37 0 -55 -16t-54 -74l-426 -672q-14 -23 -14 -49z" />
    <glyph glyph-name="Thorn" unicode="&#xde;" horiz-adv-x="1386" 
d="M397 952v-530q0 -43 26 -51t140 -9h193q166 0 223 20q123 42 172 103q63 82 63 215q0 360 -413 361q-10 0 -342 -12q-39 -2 -51 -20t-11 -77zM338 403v578q0 254 -15 312t-96 59l-114 -9q-45 0 -45 28t45 28l256 -15l254 15q45 0 45 -28t-45 -28l-115 9q-59 0 -83 -40
t-24 -111t2 -82q5 -29 43 -29l357 18q231 0 354 -104t123 -297t-123 -290t-354 -98h-322q-55 0 -68 -9t-14 -58q1 -139 19 -179t90 -40l115 8q45 0 45 -28t-45 -27l-254 14l-256 -14q-45 0 -45 28t45 27l114 -8q80 0 96 58q15 58 15 312z" />
    <glyph glyph-name="germandbls" unicode="&#xdf;" horiz-adv-x="1347" 
d="M817 18q170 0 275 108q104 108 104 243t-54 193q-32 34 -56 54q-48 40 -269 97q-133 32 -133 121q0 48 28 78t54 43t102 39q74 26 128 74t54 145t-80 155q-81 58 -205 57q-124 0 -217 -59q-94 -58 -144 -150t-50 -272v-780q0 -102 -9 -132t-25 -38t-48 -8l-108 14
l-139 -14q-16 0 -28 9q-11 9 -11 19q0 27 49 27l151 -8q80 0 97 28q16 29 16 136v725q0 37 -15 51t-59 14l-116 -8q-37 0 -37 28t39 27l133 -8q43 0 55 18t31 105q29 127 142 223q114 96 298 96q98 0 170 -26t106 -70q64 -81 64 -164q0 -190 -262 -274q-104 -33 -105 -92
q0 -66 119 -92q207 -46 282 -106t93 -126q18 -65 18 -131q0 -195 -132 -305t-312 -111q-88 0 -155 27q-68 28 -94 52t-58 65h-4l6 -86q0 -41 -28 -41t-27 43l14 258l-14 139q-1 37 27 37t28 -37l-6 -137q0 -113 74 -193t243 -80z" />
    <glyph glyph-name="agrave" unicode="&#xe0;" horiz-adv-x="1155" 
d="M336 1442q0 27 26 26q12 0 50 -24l272 -203q20 -15 20 -33t-17 -18q-18 0 -36 14l-278 195q-37 27 -37 43zM831 414v204q0 23 -5 23q-7 0 -16 -13q-42 -59 -117 -81q-75 -21 -221 -29t-242 -64t-95 -208q0 -111 92 -172t199 -62q156 0 281 111q124 111 124 291zM887 707
v-408q0 -176 16 -221t42 -55q27 -11 64 -11t74 42t31 116t-2 109t10 44t19 9q29 0 28 -62q1 -156 -33 -228t-138 -73q-104 0 -134 77q-23 56 -30 163h-5q-33 -49 -59 -81q-83 -104 -195 -137q-72 -22 -163 -22q-145 0 -241 81q-95 81 -95 200q0 166 110 236t298 79
q189 8 260 56q32 20 57 62t24 97q0 88 -70 161q-71 73 -225 73t-242 -65t-87 -150q0 -35 18 -35q2 0 10 14q25 43 62 43q65 0 65 -67q0 -37 -28 -63q-28 -25 -72 -25q-43 0 -79 36t-36 86q-1 109 103 189t274 80q369 0 369 -350z" />
    <glyph glyph-name="aacute" unicode="&#xe1;" horiz-adv-x="1155" 
d="M474 1190q-18 0 -17 18q0 18 20 33l273 203q37 25 49 24q27 0 26 -26q0 -16 -37 -43l-278 -195q-18 -14 -36 -14zM831 414v204q0 23 -5 23q-7 0 -16 -13q-42 -59 -117 -81q-75 -21 -221 -29t-242 -64t-95 -208q0 -111 92 -172t199 -62q156 0 281 111q124 111 124 291z
M887 707v-408q0 -176 16 -221t42 -55q27 -11 64 -11t74 42t31 116t-2 109t10 44t19 9q29 0 28 -62q1 -156 -33 -228t-138 -73q-104 0 -134 77q-23 56 -30 163h-5q-33 -49 -59 -81q-83 -104 -195 -137q-72 -22 -163 -22q-145 0 -241 81q-95 81 -95 200q0 166 110 236t298 79
q189 8 260 56q32 20 57 62t24 97q0 88 -70 161q-71 73 -225 73t-242 -65t-87 -150q0 -35 18 -35q2 0 10 14q25 43 62 43q65 0 65 -67q0 -37 -28 -63q-28 -25 -72 -25q-43 0 -79 36t-36 86q-1 109 103 189t274 80q369 0 369 -350z" />
    <glyph glyph-name="acircumflex" unicode="&#xe2;" horiz-adv-x="1155" 
d="M243 1229q-19 0 -19 18t26 35l276 168q29 14 31 14t31 -14l276 -168q27 -16 27 -31q0 -23 -21 -22q-18 0 -32 10l-281 166l-281 -166q-14 -10 -33 -10zM831 414v204q0 23 -5 23q-7 0 -16 -13q-42 -59 -117 -81q-75 -21 -221 -29t-242 -64t-95 -208q0 -111 92 -172
t199 -62q156 0 281 111q124 111 124 291zM887 707v-408q0 -176 16 -221t42 -55q27 -11 64 -11t74 42t31 116t-2 109t10 44t19 9q29 0 28 -62q1 -156 -33 -228t-138 -73q-104 0 -134 77q-23 56 -30 163h-5q-33 -49 -59 -81q-83 -104 -195 -137q-72 -22 -163 -22
q-145 0 -241 81q-95 81 -95 200q0 166 110 236t298 79q189 8 260 56q32 20 57 62t24 97q0 88 -70 161q-71 73 -225 73t-242 -65t-87 -150q0 -35 18 -35q2 0 10 14q25 43 62 43q65 0 65 -67q0 -37 -28 -63q-28 -25 -72 -25q-43 0 -79 36t-36 86q-1 109 103 189t274 80
q369 0 369 -350z" />
    <glyph glyph-name="atilde" unicode="&#xe3;" horiz-adv-x="1155" 
d="M675 1257q-43 0 -171 37t-152 37q-57 0 -102 -45q-20 -20 -30 -20t-9 10q0 10 19 34q18 24 64 50t82 24q36 0 168 -32q134 -32 156 -33q74 0 106 34q32 33 44 33t12 -8t-20 -35t-72 -57t-95 -29zM831 414v204q0 23 -5 23q-7 0 -16 -13q-42 -59 -117 -81q-75 -21 -221 -29
t-242 -64t-95 -208q0 -111 92 -172t199 -62q156 0 281 111q124 111 124 291zM887 707v-408q0 -176 16 -221t42 -55q27 -11 64 -11t74 42t31 116t-2 109t10 44t19 9q29 0 28 -62q1 -156 -33 -228t-138 -73q-104 0 -134 77q-23 56 -30 163h-5q-33 -49 -59 -81
q-83 -104 -195 -137q-72 -22 -163 -22q-145 0 -241 81q-95 81 -95 200q0 166 110 236t298 79q189 8 260 56q32 20 57 62t24 97q0 88 -70 161q-71 73 -225 73t-242 -65t-87 -150q0 -35 18 -35q2 0 10 14q25 43 62 43q65 0 65 -67q0 -37 -28 -63q-28 -25 -72 -25q-43 0 -79 36
t-36 86q-1 109 103 189t274 80q369 0 369 -350z" />
    <glyph glyph-name="adieresis" unicode="&#xe4;" horiz-adv-x="1155" 
d="M653 1319q0 31 24 55q23 24 57 25q34 0 57 -25q23 -26 23 -56t-24 -54q-22 -24 -56 -25q-34 1 -58 25t-23 55zM281 1319q-1 31 23 55t58 25q34 0 56 -25q22 -26 22 -56t-22 -54t-57 -25q-34 1 -57 25t-23 55zM831 414v204q0 23 -5 23q-7 0 -16 -13q-42 -59 -117 -81
q-75 -21 -221 -29t-242 -64t-95 -208q0 -111 92 -172t199 -62q156 0 281 111q124 111 124 291zM887 707v-408q0 -176 16 -221t42 -55q27 -11 64 -11t74 42t31 116t-2 109t10 44t19 9q29 0 28 -62q1 -156 -33 -228t-138 -73q-104 0 -134 77q-23 56 -30 163h-5
q-33 -49 -59 -81q-83 -104 -195 -137q-72 -22 -163 -22q-145 0 -241 81q-95 81 -95 200q0 166 110 236t298 79q189 8 260 56q32 20 57 62t24 97q0 88 -70 161q-71 73 -225 73t-242 -65t-87 -150q0 -35 18 -35q2 0 10 14q25 43 62 43q65 0 65 -67q0 -37 -28 -63
q-28 -25 -72 -25q-43 0 -79 36t-36 86q-1 109 103 189t274 80q369 0 369 -350z" />
    <glyph glyph-name="aring" unicode="&#xe5;" horiz-adv-x="1155" 
d="M666 1356q0 47 -32 84t-85 37t-85 -37t-32 -84t32 -84t85 -37t85 37t32 84zM721 1356q0 -70 -51 -120t-121 -50t-121 50t-51 120t51 120t121 50t121 -50t51 -120zM831 414v204q0 23 -5 23q-7 0 -16 -13q-42 -59 -117 -81q-75 -21 -221 -29t-242 -64t-95 -208
q0 -111 92 -172t199 -62q156 0 281 111q124 111 124 291zM887 707v-408q0 -176 16 -221t42 -55q27 -11 64 -11t74 42t31 116t-2 109t10 44t19 9q29 0 28 -62q1 -156 -33 -228t-138 -73q-104 0 -134 77q-23 56 -30 163h-5q-33 -49 -59 -81q-83 -104 -195 -137
q-72 -22 -163 -22q-145 0 -241 81q-95 81 -95 200q0 166 110 236t298 79q189 8 260 56q32 20 57 62t24 97q0 88 -70 161q-71 73 -225 73t-242 -65t-87 -150q0 -35 18 -35q2 0 10 14q25 43 62 43q65 0 65 -67q0 -37 -28 -63q-28 -25 -72 -25q-43 0 -79 36t-36 86
q-1 109 103 189t274 80q369 0 369 -350z" />
    <glyph glyph-name="ae" unicode="&#xe6;" horiz-adv-x="1886" 
d="M805 541h-285q-385 0 -385 -273q0 -135 99 -195t235 -61q197 0 290 117t93 360q0 35 -7 43t-40 9zM961 590h735q22 0 28 6t6 39t-18 92q-52 169 -180 241q-82 46 -186 46t-184 -35q-133 -59 -198 -189q-48 -93 -51 -172q1 -28 48 -28zM1704 541h-748q-31 -1 -40 -9
t-9 -72t24 -143q56 -187 203 -262q83 -43 189 -43q160 0 259 86t119 170t29 92q9 7 17 7q27 0 27 -29t-12 -68t-46 -92q-33 -53 -80 -99t-130 -78t-183 -32q-319 0 -438 314h-4q-82 -313 -420 -314q-182 0 -284 79q-101 80 -101 230t113 231q114 81 319 81h295q30 0 41 12
q10 12 10 76q0 166 -76 251t-241 85t-249 -67t-83 -134q0 -39 18 -39l25 29q26 27 54 27t47 -19q19 -18 19 -53t-27 -60q-28 -24 -74 -24t-84 38t-38 89q-1 96 101 176t280 80q94 0 170 -25q76 -24 135 -94t64 -180h4q129 299 436 299q209 0 331 -135t122 -322
q0 -39 -18 -49t-66 -10z" />
    <glyph glyph-name="ccedilla" unicode="&#xe7;" horiz-adv-x="1077" 
d="M762 666q0 31 19 48t43 17t43 -16q19 -17 27 -17t18 18q9 18 10 42q0 90 -86 173t-246 83q-201 0 -325 -136t-124 -366t115 -366q115 -134 319 -134q90 0 160 29t106 65q81 82 95 197q2 53 25 53q33 0 33 -35q-1 -82 -48 -162q-110 -190 -362 -190q-18 0 -68 4l-43 -100
q61 12 98 12q82 0 129 -39q48 -38 48 -102t-67 -104t-149 -39q-82 -1 -146 33t-64 67q0 23 26 23q20 0 53 -40t118 -40t126 32t41 75q0 42 -36 67q-36 24 -88 24t-87 -16t-48 -16t-21 8t-8 14t12 35l53 115q-190 39 -286 186q-95 147 -95 334q0 240 136 398t368 157
q168 0 278 -91t109 -218q0 -74 -39 -115t-82 -41t-67 21q-23 22 -23 53z" />
    <glyph glyph-name="egrave" unicode="&#xe8;" horiz-adv-x="1116" 
d="M317 1442q0 27 27 26q12 0 49 -24l273 -203q20 -15 20 -33t-18 -18t-35 14l-279 195q-37 27 -37 43zM195 582h727q35 0 34 32q0 114 -77 242q-41 68 -123 113t-184 45t-181 -36q-78 -36 -121 -87q-44 -51 -82 -129t-38 -148q0 -20 10 -26t35 -6zM932 532h-746
q-28 0 -36 -9t-9 -42q1 -186 105 -327t309 -142q156 0 255 79t124 181q12 50 20 70t23 20q27 0 27 -32t-22 -84q-22 -53 -68 -119t-140 -112t-218 -46t-220 48q-168 84 -228 299q-26 89 -26 184q0 244 135 400t352 157q115 0 206 -47t141 -120q100 -146 100 -296
q0 -54 -37 -59q-14 -3 -47 -3z" />
    <glyph glyph-name="eacute" unicode="&#xe9;" horiz-adv-x="1116" 
d="M807 1442q0 -16 -37 -43l-278 -195q-18 -14 -36 -14t-17 18q0 18 20 33l272 203q37 25 49 24q27 0 27 -26zM195 582h727q35 0 34 32q0 114 -77 242q-41 68 -123 113t-184 45t-181 -36q-78 -36 -121 -87q-44 -51 -82 -129t-38 -148q0 -20 10 -26t35 -6zM932 532h-746
q-28 0 -36 -9t-9 -42q1 -186 105 -327t309 -142q156 0 255 79t124 181q12 50 20 70t23 20q27 0 27 -32t-22 -84q-22 -53 -68 -119t-140 -112t-218 -46t-220 48q-168 84 -228 299q-26 89 -26 184q0 244 135 400t352 157q115 0 206 -47t141 -120q100 -146 100 -296
q0 -54 -37 -59q-14 -3 -47 -3z" />
    <glyph glyph-name="ecircumflex" unicode="&#xea;" horiz-adv-x="1116" 
d="M256 1229q-20 0 -20 22q0 14 26 31l277 168q29 14 31 14t30 -14l277 -168q27 -16 26 -31q0 -23 -20 -22q-19 0 -33 10l-281 166l-280 -166q-13 -10 -33 -10zM195 582h727q35 0 34 32q0 114 -77 242q-41 68 -123 113t-184 45t-181 -36q-78 -36 -121 -87q-44 -51 -82 -129
t-38 -148q0 -20 10 -26t35 -6zM932 532h-746q-28 0 -36 -9t-9 -42q1 -186 105 -327t309 -142q156 0 255 79t124 181q12 50 20 70t23 20q27 0 27 -32t-22 -84q-22 -53 -68 -119t-140 -112t-218 -46t-220 48q-168 84 -228 299q-26 89 -26 184q0 244 135 400t352 157
q115 0 206 -47t141 -120q100 -146 100 -296q0 -54 -37 -59q-14 -3 -47 -3z" />
    <glyph glyph-name="edieresis" unicode="&#xeb;" horiz-adv-x="1116" 
d="M666 1319q0 31 24 55t57 25q35 0 57 -25q22 -26 22 -56t-24 -54q-22 -24 -56 -25q-34 1 -56 25q-24 24 -24 55zM293 1319q-1 31 23 55t58 25q34 0 56 -25q22 -26 23 -56q0 -30 -23 -54q-22 -24 -56 -25q-34 1 -58 25t-23 55zM195 582h727q35 0 34 32q0 114 -77 242
q-41 68 -123 113t-184 45t-181 -36q-78 -36 -121 -87q-44 -51 -82 -129t-38 -148q0 -20 10 -26t35 -6zM932 532h-746q-28 0 -36 -9t-9 -42q1 -186 105 -327t309 -142q156 0 255 79t124 181q12 50 20 70t23 20q27 0 27 -32t-22 -84q-22 -53 -68 -119t-140 -112t-218 -46
t-220 48q-168 84 -228 299q-26 89 -26 184q0 244 135 400t352 157q115 0 206 -47t141 -120q100 -146 100 -296q0 -54 -37 -59q-14 -3 -47 -3z" />
    <glyph glyph-name="igrave" unicode="&#xec;" horiz-adv-x="655" 
d="M45 1442q0 27 27 26q12 0 49 -24l272 -203q21 -15 21 -33t-18 -18t-36 14l-278 195q-37 27 -37 43zM322 381v336q0 195 -12 233t-72 37l-136 -8q-41 0 -41 28t35 27l131 -8l115 8q23 0 29 -10t6 -33v-610q0 -242 15 -295t100 -53l100 8q45 0 45 -28t-39 -27l-250 14
l-248 -14q-39 0 -39 28t45 27l101 -8q83 0 99 53t16 295z" />
    <glyph glyph-name="iacute" unicode="&#xed;" horiz-adv-x="655" 
d="M224 1190q-18 0 -17 18q0 18 20 33l273 203q37 25 49 24q27 0 26 -26q0 -16 -36 -43l-279 -195q-18 -14 -36 -14zM322 381v336q0 195 -12 233t-72 37l-136 -8q-41 0 -41 28t35 27l131 -8l115 8q23 0 29 -10t6 -33v-610q0 -242 15 -295t100 -53l100 8q45 0 45 -28t-39 -27
l-250 14l-248 -14q-39 0 -39 28t45 27l101 -8q83 0 99 53t16 295z" />
    <glyph glyph-name="icircumflex" unicode="&#xee;" horiz-adv-x="655" 
d="M-38 1229q-20 0 -19 22q0 14 26 31l277 168q28 14 30 14t31 -14l277 -168q27 -16 26 -31q0 -23 -20 -22q-19 0 -33 10l-281 166l-280 -166q-14 -10 -34 -10zM322 381v336q0 195 -12 233t-72 37l-136 -8q-41 0 -41 28t35 27l131 -8l115 8q23 0 29 -10t6 -33v-610
q0 -242 15 -295t100 -53l100 8q45 0 45 -28t-39 -27l-250 14l-248 -14q-39 0 -39 28t45 27l101 -8q83 0 99 53t16 295z" />
    <glyph glyph-name="idieresis" unicode="&#xef;" horiz-adv-x="655" 
d="M403 1319q0 31 24 55q23 24 57 25q34 0 57 -25q23 -26 23 -56t-24 -54q-22 -24 -56 -25q-34 1 -58 25t-23 55zM31 1319q-1 31 23 55t58 25q34 0 56 -25q22 -26 22 -56t-22 -54t-56 -25q-34 1 -58 25t-23 55zM322 381v336q0 195 -12 233t-72 37l-136 -8q-41 0 -41 28
t35 27l131 -8l115 8q23 0 29 -10t6 -33v-610q0 -242 15 -295t100 -53l100 8q45 0 45 -28t-39 -27l-250 14l-248 -14q-39 0 -39 28t45 27l101 -8q83 0 99 53t16 295z" />
    <glyph glyph-name="eth" unicode="&#xf0;" horiz-adv-x="1155" 
d="M367 1415q-55 0 -56 27q0 27 37 26q174 0 354 -106l226 100q33 14 40 -10t-16 -33l-209 -92q154 -109 246 -292t92 -455t-137 -442q-137 -169 -363 -169t-363 159q-136 159 -136 386t136 385t360 158q305 0 423 -252h5q-66 336 -314 495l-260 -116q-16 -8 -28 1t-10 23
t18 23l237 106q-137 78 -282 78zM141 514q0 -207 120 -354q120 -148 326 -148q207 0 321 158t114 387q0 178 -120 317q-120 140 -320 140t-321 -146q-120 -146 -120 -354z" />
    <glyph glyph-name="ntilde" unicode="&#xf1;" horiz-adv-x="1425" 
d="M887 1319q73 0 105 34q32 33 44 33t12 -8t-20 -35t-72 -57t-94 -29q-43 0 -172 37t-151 37q-57 0 -103 -45q-20 -20 -26 -20q-30 0 7 44q19 24 64 50t81 24q36 0 169 -32t156 -33zM1100 381v209q0 208 -70 316t-263 108t-291 -112t-99 -308v-213q0 -242 15 -295t100 -53
l100 8q45 0 45 -28t-39 -27l-250 14l-248 -14q-39 0 -39 28t45 27l101 -8q84 0 99 53t16 295v336q0 195 -12 233t-72 37l-136 -8q-41 0 -41 28t35 27l131 -8l115 8q23 0 29 -10t6 -33v-157h4q109 223 385 223q223 0 306 -119t83 -340v-217q0 -242 15 -295t100 -53l100 8
q45 0 45 -28t-39 -27l-250 14l-247 -14q-39 0 -39 28t45 27l100 -8q83 0 99 53t16 295z" />
    <glyph glyph-name="ograve" unicode="&#xf2;" horiz-adv-x="1155" 
d="M336 1442q0 27 26 26q12 0 50 -24l272 -203q20 -15 20 -33t-17 -18q-18 0 -36 14l-278 195q-37 27 -37 43zM1014 514q0 207 -120 353q-120 147 -316 147t-317 -146q-120 -146 -120 -354q0 -207 120 -354q120 -148 317 -148q196 0 316 148t120 354zM1073 514
q0 -227 -136 -386t-359 -159t-360 159q-136 159 -136 386t136 385t360 158t359 -158q136 -158 136 -385z" />
    <glyph glyph-name="oacute" unicode="&#xf3;" horiz-adv-x="1155" 
d="M474 1190q-18 0 -17 18q0 18 20 33l273 203q37 25 49 24q27 0 26 -26q0 -16 -37 -43l-278 -195q-18 -14 -36 -14zM1014 514q0 207 -120 353q-120 147 -316 147t-317 -146q-120 -146 -120 -354q0 -207 120 -354q120 -148 317 -148q196 0 316 148t120 354zM1073 514
q0 -227 -136 -386t-359 -159t-360 159q-136 159 -136 386t136 385t360 158t359 -158q136 -158 136 -385z" />
    <glyph glyph-name="ocircumflex" unicode="&#xf4;" horiz-adv-x="1155" 
d="M264 1229q-20 0 -20 22q0 14 26 31l277 168q29 14 31 14t30 -14l277 -168q27 -16 26 -31q0 -23 -20 -22q-19 0 -33 10l-280 166l-281 -166q-13 -10 -33 -10zM1014 514q0 207 -120 353q-120 147 -316 147t-317 -146q-120 -146 -120 -354q0 -207 120 -354
q120 -148 317 -148q196 0 316 148t120 354zM1073 514q0 -227 -136 -386t-359 -159t-360 159q-136 159 -136 386t136 385t360 158t359 -158q136 -158 136 -385z" />
    <glyph glyph-name="otilde" unicode="&#xf5;" horiz-adv-x="1155" 
d="M716 1257q-44 0 -172 37t-151 37q-57 0 -102 -45q-19 -20 -29 -20t-10 10t19 34t65 50t80 24q36 0 170 -32t155 -33q74 0 106 34q32 33 44 33t12 -8t-20 -35t-72 -57t-95 -29zM1014 514q0 207 -120 353q-120 147 -316 147t-317 -146q-120 -146 -120 -354q0 -207 120 -354
q120 -148 317 -148q196 0 316 148t120 354zM1073 514q0 -227 -136 -386t-359 -159t-360 159q-136 159 -136 386t136 385t360 158t359 -158q136 -158 136 -385z" />
    <glyph glyph-name="odieresis" unicode="&#xf6;" horiz-adv-x="1155" 
d="M684 1319q0 31 24 55t58 25q34 0 56 -25q22 -26 22 -56t-23 -54t-57 -25q-34 1 -56 25q-24 24 -24 55zM311 1319q0 31 24 55q23 24 57 25q34 0 57 -25q23 -26 23 -56t-24 -54q-22 -24 -56 -25q-34 1 -58 25t-23 55zM1014 514q0 207 -120 353q-120 147 -316 147t-317 -146
q-120 -146 -120 -354q0 -207 120 -354q120 -148 317 -148q196 0 316 148t120 354zM1073 514q0 -227 -136 -386t-359 -159t-360 159q-136 159 -136 386t136 385t360 158t359 -158q136 -158 136 -385z" />
    <glyph glyph-name="divide" unicode="&#xf7;" horiz-adv-x="1228" 
d="M694 952q0 -36 -24 -58t-56 -22t-56 23t-24 57t24 58q24 22 56 22t57 -22q23 -23 23 -58zM694 72q0 -35 -24 -58q-24 -22 -56 -22t-56 22t-23 58q-1 36 23 58t56 22t56 -22t24 -58zM102 541h1024v-58h-1024v58z" />
    <glyph glyph-name="oslash" unicode="&#xf8;" horiz-adv-x="1155" 
d="M82 514q0 227 136 385t360 158q113 0 217 -47l79 157q16 31 39 31q31 0 31 -29q0 -12 -16 -41l-86 -145q111 -76 171 -200t60 -269q0 -227 -136 -386t-359 -159q-127 0 -244 62l-66 -133q-24 -50 -52 -50t-28 27q0 18 15 43l82 145q-203 166 -203 451zM1014 514
q0 129 -50 242t-145 184q-217 -387 -463 -866q100 -61 222 -62q196 0 316 148t120 354zM141 514q0 -252 166 -405q45 74 238 430t227 430q-90 45 -194 45q-197 0 -317 -146t-120 -354z" />
    <glyph glyph-name="ugrave" unicode="&#xf9;" horiz-adv-x="1347" 
d="M391 1442q0 27 27 26q12 0 49 -24l272 -203q21 -15 21 -33t-18 -18t-35 14l-279 195q-37 27 -37 43zM317 991v-612q0 -183 78 -275t248 -92q375 0 375 451v254q0 195 -11 233t-73 37l-135 -8q-41 0 -41 28t35 27l131 -8l114 8q23 0 29 -10t6 -33v-682q0 -195 11 -233
t73 -37l135 8q41 0 41 -28t-35 -27l-131 8l-114 -8q-23 0 -29 10t-6 33v155h-4q-27 -60 -82 -115q-106 -106 -305 -106t-282 109t-83 311v328q0 195 -11 233t-73 37l-135 -8q-41 0 -41 28t35 27l131 -8l115 8q23 0 29 -10t5 -33z" />
    <glyph glyph-name="uacute" unicode="&#xfa;" horiz-adv-x="1347" 
d="M901 1442q0 -16 -37 -43l-278 -195q-18 -14 -36 -14t-17 18q0 18 20 33l272 203q37 25 49 24q27 0 27 -26zM317 991v-612q0 -183 78 -275t248 -92q375 0 375 451v254q0 195 -11 233t-73 37l-135 -8q-41 0 -41 28t35 27l131 -8l114 8q23 0 29 -10t6 -33v-682
q0 -195 11 -233t73 -37l135 8q41 0 41 -28t-35 -27l-131 8l-114 -8q-23 0 -29 10t-6 33v155h-4q-27 -60 -82 -115q-106 -106 -305 -106t-282 109t-83 311v328q0 195 -11 233t-73 37l-135 -8q-41 0 -41 28t35 27l131 -8l115 8q23 0 29 -10t5 -33z" />
    <glyph glyph-name="ucircumflex" unicode="&#xfb;" horiz-adv-x="1347" 
d="M360 1229q-20 0 -20 22q0 14 27 31l276 168q29 14 31 14t31 -14l276 -168q27 -16 27 -31q0 -23 -21 -22q-19 0 -33 10l-280 166l-281 -166q-13 -10 -33 -10zM317 991v-612q0 -183 78 -275t248 -92q375 0 375 451v254q0 195 -11 233t-73 37l-135 -8q-41 0 -41 28t35 27
l131 -8l114 8q23 0 29 -10t6 -33v-682q0 -195 11 -233t73 -37l135 8q41 0 41 -28t-35 -27l-131 8l-114 -8q-23 0 -29 10t-6 33v155h-4q-27 -60 -82 -115q-106 -106 -305 -106t-282 109t-83 311v328q0 195 -11 233t-73 37l-135 -8q-41 0 -41 28t35 27l131 -8l115 8
q23 0 29 -10t5 -33z" />
    <glyph glyph-name="udieresis" unicode="&#xfc;" horiz-adv-x="1347" 
d="M739 1319q0 31 24 55q23 24 57 25q34 0 57 -25q23 -26 23 -56t-24 -54q-22 -24 -56 -25q-34 1 -58 25t-23 55zM367 1319q-1 31 23 55t58 25q34 0 56 -25q22 -26 22 -56t-22 -54t-56 -25q-34 1 -58 25t-23 55zM317 991v-612q0 -183 78 -275t248 -92q375 0 375 451v254
q0 195 -11 233t-73 37l-135 -8q-41 0 -41 28t35 27l131 -8l114 8q23 0 29 -10t6 -33v-682q0 -195 11 -233t73 -37l135 8q41 0 41 -28t-35 -27l-131 8l-114 -8q-23 0 -29 10t-6 33v155h-4q-27 -60 -82 -115q-106 -106 -305 -106t-282 109t-83 311v328q0 195 -11 233t-73 37
l-135 -8q-41 0 -41 28t35 27l131 -8l115 8q23 0 29 -10t5 -33z" />
    <glyph glyph-name="yacute" unicode="&#xfd;" horiz-adv-x="1193" 
d="M846 1442q0 -16 -37 -43l-279 -195q-18 -14 -35 -14t-17 18t20 33l272 203q37 25 49 24q27 0 27 -26zM592 43q8 0 18 27l320 780q28 66 28 92t-28 38q-29 13 -58 13l-120 -8q-43 0 -43 27q0 12 14 20t27 8l206 -14l220 14q12 0 24 -8t12 -20q0 -27 -51 -27l-57 8
q-37 1 -57 -29t-72 -151l-354 -854q-81 -197 -179 -283t-229 -86t-203 66t-71 145q0 47 31 80q32 33 68 33t56 -20t20 -50t-18 -48q-20 -19 -51 -19l-35 8q-12 0 -12 -21q0 -43 58 -87t142 -44t148 33q101 53 163 170q44 83 44 111q0 29 -14 63l-326 824q-27 68 -38 92
t-37 46t-64 21l-58 -8q-8 0 -18 8t-10 19q0 29 41 28l194 -14l223 14q53 0 54 -28q0 -27 -49 -27l-121 8q-84 0 -84 -47q-1 -26 30 -106l299 -770q9 -27 17 -27z" />
    <glyph glyph-name="thorn" unicode="&#xfe;" horiz-adv-x="1230" 
d="M1090 504q0 207 -79 349q-42 75 -122 118t-189 43q-170 0 -276 -121q-64 -74 -84 -158q-20 -85 -20 -245t16 -228q18 -68 65 -125t123 -91t140 -34t108 10t104 44q60 33 105 85t77 148q32 95 32 205zM268 -16v1126q0 194 -11 232t-73 38l-135 -8q-41 0 -41 28t35 27
l131 -8l115 8q23 0 29 -10t6 -33v-565h4q109 238 374 238q119 0 209 -46q238 -122 238 -505q0 -123 -48 -246t-159 -207t-266 -84q-246 0 -348 201h-4v-186q0 -242 15 -295t99 -54l101 9q45 0 45 -28t-39 -28l-250 15l-248 -15q-39 0 -39 28t45 28l101 -9q84 -1 99 53
t15 296z" />
    <glyph glyph-name="ydieresis" unicode="&#xff;" horiz-adv-x="1193" 
d="M705 1319q-1 31 23 55t58 25q34 0 56 -25q22 -26 22 -56t-22 -54t-57 -25q-34 1 -57 25t-23 55zM332 1319q0 31 24 55t57 25q35 0 57 -25q22 -26 22 -56t-23 -54t-57 -25q-34 1 -56 25q-24 24 -24 55zM592 43q8 0 18 27l320 780q28 66 28 92t-28 38q-29 13 -58 13
l-120 -8q-43 0 -43 27q0 12 14 20t27 8l206 -14l220 14q12 0 24 -8t12 -20q0 -27 -51 -27l-57 8q-37 1 -57 -29t-72 -151l-354 -854q-81 -197 -179 -283t-229 -86t-203 66t-71 145q0 47 31 80q32 33 68 33t56 -20t20 -50t-18 -48q-20 -19 -51 -19l-35 8q-12 0 -12 -21
q0 -43 58 -87t142 -44t148 33q101 53 163 170q44 83 44 111q0 29 -14 63l-326 824q-27 68 -38 92t-37 46t-64 21l-58 -8q-8 0 -18 8t-10 19q0 29 41 28l194 -14l223 14q53 0 54 -28q0 -27 -49 -27l-121 8q-84 0 -84 -47q-1 -26 30 -106l299 -770q9 -27 17 -27z" />
    <glyph glyph-name="dotlessi" unicode="&#x131;" horiz-adv-x="655" 
d="M322 381v336q0 195 -12 233t-72 37l-136 -8q-41 0 -41 28t35 27l131 -8l115 8q23 0 29 -10t6 -33v-610q0 -242 15 -295t100 -53l100 8q45 0 45 -28t-39 -27l-250 14l-248 -14q-39 0 -39 28t45 27l101 -8q83 0 99 53t16 295z" />
    <glyph glyph-name="Lslash" unicode="&#x141;" 
d="M397 236q1 -137 13 -165t77 -28h377q223 0 276 28q52 28 52 160l-8 232q0 29 10 47t23 18q31 0 31 -44t-8 -114q-7 -70 -7 -143l14 -184q0 -33 -14 -45t-66 -12l-854 14q-12 0 -116 -6q-66 -8 -84 -8q-57 0 -58 30q0 35 51 35l142 -8q66 0 78 46t12 286v276l-203 -155
q-29 -23 -47 -23q-25 0 -25 23q0 16 35 43l240 180v262q0 254 -15 312t-96 59l-114 -9q-45 0 -45 28t45 28l256 -15l254 15q45 0 45 -28t-45 -28l-115 9q-80 0 -95 -58t-16 -313v-225l301 227q32 23 56 44t37 22q25 0 24 -25q0 -21 -84 -84l-334 -252v-452z" />
    <glyph glyph-name="lslash" unicode="&#x142;" horiz-adv-x="616" 
d="M340 1384v-526l143 111q76 55 86 55q25 0 25 -23q0 -10 -14 -23t-60 -48l-180 -137v-412q0 -242 15 -295t100 -53l100 8q45 0 45 -28t-39 -27l-250 14l-248 -14q-39 0 -38 26q0 29 45 29l100 -8q84 0 99 53t16 295v377l-138 -107q-78 -61 -90 -61q-23 0 -22 22
q0 14 11 26t65 52l174 133v287q1 194 -11 232t-73 38l-135 -8q-41 0 -41 28t34 27l131 -8l115 8q23 0 29 -10t6 -33z" />
    <glyph glyph-name="OE" unicode="&#x152;" horiz-adv-x="2349" 
d="M1628 705h-233q-55 -1 -67 -15t-11 -69v-447q0 -94 21 -113q22 -18 118 -18h412q201 0 224 23q39 35 41 74q3 39 3 87l-10 224q0 61 33 61q12 0 22 -14t10 -39l-14 -205l14 -203q0 -57 -84 -57l-227 6q-354 0 -441 -3t-106 -3q-84 0 -84 58t13 345h-5q-61 -207 -200 -325
t-341 -117t-343 109t-206 272t-65 358t65 357t206 271t344 108t343 -119t202 -322h4l-17 344q0 57 84 58l115 -2q82 -4 113 -5h299q33 0 114 5l113 2q84 0 84 -58l-14 -221l14 -205q0 -74 -35 -73q-31 0 -31 73l11 269q-2 118 -35 142t-178 23h-459q-84 1 -106 -31t-21 -177
v-302q0 -57 13 -70t77 -13h221q82 0 125 22t43 90l-10 144q0 57 30 57t29 -62l-14 -270l14 -340q1 -59 -29 -59t-30 69l10 166q0 82 -36 111t-132 29zM168 716q0 -158 33 -278q74 -272 266 -378q105 -58 243 -58t244 58q190 104 267 378q33 120 33 278t-55 310
q-54 152 -181 254t-307 102q-179 0 -307 -102t-182 -254t-54 -310z" />
    <glyph glyph-name="oe" unicode="&#x153;" horiz-adv-x="2039" 
d="M141 514q0 -207 120 -354q120 -148 317 -148q196 0 316 148t120 354q0 207 -120 353q-120 147 -316 147t-317 -146q-120 -146 -120 -354zM1862 532h-746q-31 0 -41 -10t-10 -41q0 -259 180 -395q98 -74 247 -74t248 79t124 181q12 50 20 70t23 20q51 0 5 -116
q-22 -53 -68 -119t-140 -112t-215 -46q-184 -1 -296 95t-153 245h-4q-63 -162 -181 -251t-277 -89q-223 0 -360 159q-136 159 -136 386t136 385t360 158q166 0 284 -92t178 -258h4q47 160 168 255t287 95q115 0 206 -47t141 -120q100 -146 100 -296q0 -38 -20 -50t-64 -12z
M1124 582h727v4q35 0 35 32q0 90 -38 167t-80 122t-112 76t-164 31q-93 0 -172 -36t-123 -87t-84 -130t-40 -147q0 -32 51 -32z" />
    <glyph glyph-name="Scaron" unicode="&#x160;" horiz-adv-x="1230" 
d="M313 1780q12 0 33 -11l281 -165l280 165q20 10 33 11q20 0 21 -23q0 -14 -27 -31l-277 -167q-23 -14 -31 -14t-30 14l-277 167q-27 16 -26 31q0 23 20 23zM604 1382q-104 0 -182 -32q-136 -57 -183 -194q-48 -137 5 -240q70 -135 275 -164q51 -9 127 -16t122 -14
q47 -7 124 -31q77 -25 117 -59q39 -34 71 -102t32 -148q0 -148 -100 -280q-50 -66 -148 -106t-217 -41q-119 1 -203 23t-137 64t-79 72t-54 74h-4q14 -128 14 -164t-32 -36q-14 0 -24 17q-9 17 -9 38l14 252l-14 248q0 41 30 41t29 -35l-6 -121q0 -325 285 -404
q76 -22 164 -22q217 0 321 113t105 260q0 217 -193 273q-86 25 -227 36q-475 35 -475 350q0 162 122 279q123 117 328 117q142 0 248 -60t145 -182h4q3 70 -2 111q-4 41 -4 49q0 51 29 51t29 -51l-15 -256l15 -199q-1 -17 -11 -29t-22 -12q-29 0 -29 43l6 86q0 193 -103 297
t-288 104z" />
    <glyph glyph-name="scaron" unicode="&#x161;" horiz-adv-x="1040" 
d="M844 1462q20 0 20 -22q0 -14 -26 -31l-277 -168q-23 -14 -32 -14t-29 14l-277 168q-27 16 -26 31q0 23 20 22q12 0 33 -10l280 -166l281 166q20 10 33 10zM518 1014q-135 0 -220 -68t-85 -181q0 -112 72 -147q77 -38 343 -75q162 -23 229 -78q31 -25 55 -70t24 -104
q0 -139 -111 -231t-286 -91q-111 0 -197 37t-119 73t-49 68h-4l6 -129q0 -45 -28 -45t-27 43l14 224l-14 194q0 51 28 51t27 -51l-6 -119q0 -137 105 -220t265 -83t248 75t88 177t-53 150q-54 48 -196 70q-45 6 -129 18t-136 24t-105 40q-105 57 -104 189t106 217t253 85
q96 0 169 -35t97 -65t51 -72h5l-7 102q0 57 33 57q23 0 23 -57l-15 -176l15 -158q0 -37 -28 -37t-28 33l7 70q0 97 -64 188q-32 47 -98 77t-154 30z" />
    <glyph glyph-name="Ydieresis" unicode="&#x178;" 
d="M762 1616q0 32 24 56t57 24q35 0 57 -25t22 -55t-23 -56q-23 -24 -57 -24t-56 24q-24 24 -24 56zM389 1616q0 32 24 56q23 24 57 24t56 -25t23 -55q0 -30 -23 -56q-22 -24 -56 -24t-58 24t-23 56zM686 541v-234q0 -180 18 -227t91 -47l114 8q45 0 45 -28t-45 -27l-254 14
l-266 -14q-43 0 -43 26q0 12 14 20t31 9l117 -8q51 0 73 16q44 32 46 275v223q0 29 -13 49l-411 668q-33 53 -55 70t-56 18l-102 -9q-51 0 -51 28t53 28l215 -15l244 15q41 0 41 -25q0 -12 -16 -21t-32 -10l-161 9q-47 0 -47 -19q0 -6 22 -45l369 -610q20 -31 34 -31t33 31
l344 553q47 74 47 92q0 29 -71 29l-129 -9q-68 0 -68 28t47 28l248 -15l215 15q41 0 41 -28t-53 -28l-80 9q-37 0 -55 -16t-54 -74l-426 -672q-14 -23 -14 -49z" />
    <glyph glyph-name="Zcaron" unicode="&#x17d;" 
d="M342 1780q12 0 33 -11l280 -165l281 165q20 10 33 11q20 0 20 -23q0 -14 -26 -31l-277 -167q-22 -14 -30 -14t-31 14l-277 167q-27 16 -26 31q0 23 20 23zM236 1384h843q86 0 95 -13q10 -13 10 -33t-35 -64l-967 -1192q-22 -22 -22 -28t47 -7h784q80 0 103 33t22 135
l-10 254q0 63 33 63t32 -65l-14 -234l14 -190q0 -20 -12 -31t-57 -12h-934q-78 0 -78 41q0 15 8 27t49 63l940 1157q23 23 23 41q0 8 -39 8h-766q-41 0 -58 -5q-44 -13 -44 -136l10 -250q0 -25 -10 -39t-23 -14q-33 0 -33 74l15 202l-15 146q-1 49 17 59t72 10z" />
    <glyph glyph-name="zcaron" unicode="&#x17e;" horiz-adv-x="1116" 
d="M225 1440q0 23 21 22q12 0 33 -10l280 -166l281 166q20 10 32 10q20 0 21 -22q0 -14 -27 -31l-276 -168q-20 -14 -31 -14t-31 14l-276 168q-27 16 -27 31zM244 1026h645q90 0 96 -12t6 -37t-43 -68l-772 -815q-25 -33 -24 -37q0 -10 49 -10h633q74 -1 90 17t16 104
l-8 213q0 57 30 57t29 -57l-8 -178l8 -154q0 -35 -20 -42t-86 -7h-692q-87 0 -99 13t-12 37t68 93l743 789q25 20 25 39q0 8 -52 8h-590q-57 0 -76 -13q-32 -22 -32 -106l8 -174q0 -49 -29 -49t-28 49l8 111l-8 176q0 39 21 46q22 7 104 7z" />
    <glyph glyph-name="florin" unicode="&#x192;" 
d="M520 891q-37 0 -37 26t37 25h174l37 211q11 65 23 103t42 94q61 112 224 110q109 0 199 -51t90 -133q1 -32 -17 -56t-47 -24t-46 16t-17 43t19 45t19 30t-21 30q-22 20 -69 36t-102 17q-98 0 -151 -51t-80 -199l-39 -221h264q39 0 39 -22q0 -29 -51 -29h-260l-158 -868
q-88 -475 -414 -476q-100 0 -175 45t-75 111q0 33 22 51q50 40 89 1q18 -17 18 -44l-14 -59q0 -55 135 -58q279 0 361 467l145 830h-164z" />
    <glyph glyph-name="circumflex" unicode="&#x2c6;" horiz-adv-x="1040" 
d="M206 1229q-20 0 -20 18t27 35l276 168q29 14 31 14t31 -14l276 -168q27 -16 27 -31q0 -23 -20 -22q-19 0 -33 10l-281 166l-280 -166q-14 -10 -34 -10z" />
    <glyph glyph-name="caron" unicode="&#x2c7;" horiz-adv-x="1040" 
d="M186 1440q0 23 21 22q12 0 33 -10l280 -166l281 166q20 10 33 10q20 0 20 -22q0 -14 -27 -31l-276 -168q-23 -14 -33 -14t-29 14l-276 168q-27 16 -27 31z" />
    <glyph glyph-name="uni02C9" unicode="&#x2c9;" horiz-adv-x="1040" 
d="M805 1311h-578q-37 1 -37 27t39 26h576q45 0 45 -26t-45 -27z" />
    <glyph glyph-name="breve" unicode="&#x2d8;" horiz-adv-x="1040" 
d="M518 1225q-84 1 -154 29t-108 68q-71 77 -74 120q0 14 10 14t38 -34t30 -38q96 -94 264 -94q180 0 272 116q40 50 51 50t11 -16t-21 -50q-107 -165 -319 -165z" />
    <glyph glyph-name="dotaccent" unicode="&#x2d9;" horiz-adv-x="1040" 
d="M440 1319q0 31 24 55t58 25q34 0 56 -25q22 -26 22 -56t-22 -54t-57 -25q-33 1 -57 25t-24 55z" />
    <glyph glyph-name="ring" unicode="&#x2da;" horiz-adv-x="1040" 
d="M608 1356q0 47 -31 84q-32 37 -85 37t-85 -37t-32 -84t32 -84t85 -37t85 37q31 37 31 84zM664 1356q0 -70 -52 -120t-120 -50q-70 0 -121 50t-52 120t51 120t122 50t121 -50t51 -120z" />
    <glyph glyph-name="ogonek" unicode="&#x2db;" horiz-adv-x="1040" 
d="M518 -233q0 -57 47 -95t105 -39q58 0 111 25q52 25 59 25q25 0 24 -23q0 -29 -57 -49q-57 -21 -141 -21t-146 50t-61 127q0 125 172 233h71q-184 -114 -184 -233z" />
    <glyph glyph-name="tilde" unicode="&#x2dc;" horiz-adv-x="1040" 
d="M684 1319q74 0 106 34q32 33 44 33t12 -8t-20 -35t-72 -57t-95 -29q-43 0 -172 37t-151 37q-57 0 -103 -45q-20 -20 -26 -20q-12 0 -12 10t19 34q18 24 64 50t82 24q36 0 168 -32q133 -32 156 -33z" />
    <glyph glyph-name="hungarumlaut" unicode="&#x2dd;" horiz-adv-x="1040" 
d="M796 1544q22 0 21 -24q0 -12 -20 -41l-185 -262q-20 -25 -30 -25q-18 0 -19 20q0 13 8 29l177 266q26 37 48 37zM586 1544q22 0 20 -24q0 -12 -20 -41l-185 -262q-20 -25 -30 -25q-18 0 -19 20q0 13 8 29l177 266q27 37 49 37z" />
    <glyph glyph-name="uni03A9" unicode="&#x3a9;" horiz-adv-x="1732" 
d="M516 53v6q-152 109 -249 283t-97 393q0 313 206 513t498 200t490 -210q197 -210 197 -497q1 -229 -103 -409t-248 -273v-6h383v-53h-516v39q172 88 295 272t123 423t-158 441q-75 97 -197 158t-268 62q-284 0 -460 -195t-176 -448t124 -439t291 -274v-39h-514v53h379z
" />
    <glyph glyph-name="uni03BC" unicode="&#x3bc;" horiz-adv-x="1347" 
d="M317 991v-612q0 -183 78 -275t248 -92q375 0 375 451v254q0 195 -11 233t-73 37l-135 -8q-41 0 -41 28t35 27l131 -8l114 8q23 0 29 -10t6 -33v-682q0 -195 11 -233t73 -37l135 8q41 0 41 -28t-35 -27l-131 8l-114 -8q-23 0 -29 10t-6 33v155h-4q-27 -60 -82 -115
q-106 -106 -285 -106q-244 0 -334 168l-4 -4l21 -448q0 -37 -1 -53q-3 -41 -38 -42q-37 0 -37 95l8 704v328q0 195 -11 233t-73 37l-135 -8q-41 0 -41 28t35 27l131 -8l115 8q23 0 29 -10t5 -33z" />
    <glyph glyph-name="pi" unicode="&#x3c0;" horiz-adv-x="1273" 
d="M997 993v-684q0 -211 37 -309h-63q-39 55 -39 293v700h-522q-16 -244 -72 -557t-121 -436h-65q68 145 121 443q54 298 69 550q-217 0 -295 -32l-20 43q109 47 292 47h904l-11 -58h-215z" />
    <glyph glyph-name="endash" unicode="&#x2013;" horiz-adv-x="1024" 
d="M127 584h768q63 0 63 -35t-63 -35h-772q-57 0 -57 35t61 35z" />
    <glyph glyph-name="emdash" unicode="&#x2014;" horiz-adv-x="2048" 
d="M127 584h1790q66 0 65 -35q0 -35 -65 -35h-1794q-57 0 -57 35t61 35z" />
    <glyph glyph-name="quoteleft" unicode="&#x2018;" horiz-adv-x="501" 
d="M369 931q0 -44 -30 -74q-29 -30 -87 -30q-58 1 -88 57t-31 147q0 91 40 193t80 153q40 52 56 53q7 0 17 -8t10 -17q0 -8 -8 -16q-133 -152 -133 -310q0 -68 34 -67l56 8q29 0 57 -22t27 -67z" />
    <glyph glyph-name="quoteright" unicode="&#x2019;" horiz-adv-x="501" 
d="M133 1326q0 44 30 74q29 30 87 30t88 -56t31 -148q0 -90 -40 -192t-80 -154t-56 -53q-7 1 -17 9t-10 16t8 16q133 152 133 310q0 68 -35 67l-55 -8q-29 0 -57 23q-28 22 -27 66z" />
    <glyph glyph-name="quotesinglbase" unicode="&#x201a;" horiz-adv-x="501" 
d="M133 65q0 43 30 73q29 30 87 30t88 -56t31 -147q0 -91 -40 -193t-80 -154t-56 -52q-7 0 -17 8t-10 16t8 17q133 152 133 309q0 68 -35 68l-55 -9q-29 0 -57 23t-27 67z" />
    <glyph glyph-name="quotedblleft" unicode="&#x201c;" horiz-adv-x="845" 
d="M713 931q0 -44 -30 -74q-29 -30 -87 -30q-58 1 -88 57t-31 147q0 91 40 193t80 153q40 52 56 53q7 0 17 -8t10 -17q0 -8 -8 -16q-133 -152 -133 -310q0 -68 34 -67l56 8q29 0 57 -22t27 -67zM369 931q0 -44 -30 -74q-29 -30 -87 -30q-58 1 -88 57t-31 147q0 91 40 193
t80 153q40 52 56 53q7 0 17 -8t10 -17q0 -8 -8 -16q-133 -152 -133 -310q0 -68 34 -67l56 8q29 0 57 -22t27 -67z" />
    <glyph glyph-name="quotedblright" unicode="&#x201d;" horiz-adv-x="845" 
d="M477 1326q0 44 30 74q29 30 87 30t88 -56t31 -148q0 -90 -40 -192t-80 -154t-56 -53q-7 1 -17 9t-10 16t8 16q133 152 133 310q0 68 -35 67l-55 -8q-29 0 -57 23q-28 22 -27 66zM133 1326q0 44 30 74q29 30 87 30t88 -56t31 -148q0 -90 -40 -192t-80 -154t-56 -53
q-7 1 -17 9t-10 16t8 16q133 152 133 310q0 68 -35 67l-55 -8q-29 0 -57 23q-28 22 -27 66z" />
    <glyph glyph-name="quotedblbase" unicode="&#x201e;" horiz-adv-x="845" 
d="M477 65q0 43 30 73q29 30 87 30t88 -56t31 -147q0 -91 -40 -193t-80 -154t-56 -52q-7 0 -17 8t-10 16t8 17q133 152 133 309q0 68 -35 68l-55 -9q-29 0 -57 23t-27 67zM133 65q0 43 30 73q29 30 87 30t88 -56t31 -147q0 -91 -40 -193t-80 -154t-56 -52q-7 0 -17 8t-10 16
t8 17q133 152 133 309q0 68 -35 68l-55 -9q-29 0 -57 23t-27 67z" />
    <glyph glyph-name="dagger" unicode="&#x2020;" 
d="M1087 952q0 -41 -57 -39l-354 21q16 -1055 16 -1184q0 -61 -38 -61t-38 61q0 262 15 1184l-352 -21q-59 -4 -60 41q0 39 64 37l348 -16q-13 346 -15 450q0 43 38 43t38 -43l-16 -450l348 16q63 2 63 -39z" />
    <glyph glyph-name="daggerdbl" unicode="&#x2021;" 
d="M688 603q0 -91 -12 -357l354 20q57 4 57 -39t-63 -39l-348 17l16 -459q4 -55 -39 -55q-37 0 -37 41l17 473l-350 -17q-63 -4 -64 39q0 43 60 39l354 -20q-12 266 -12 357t12 331l-354 -21q-59 -4 -60 39q0 41 64 39l350 -16l-17 436q-2 57 35 57q45 0 41 -57l-16 -436
l348 16q63 2 63 -39t-57 -39l-354 21q12 -240 12 -331z" />
    <glyph glyph-name="bullet" unicode="&#x2022;" horiz-adv-x="679" 
d="M475 693q0 -56 -42 -94t-93 -38t-93 38t-42 94t42 94t93 38t93 -38t42 -94z" />
    <glyph glyph-name="ellipsis" unicode="&#x2026;" horiz-adv-x="2048" 
d="M1806 76q0 -43 -30 -72t-70 -29q-39 0 -70 29t-30 72q0 44 30 72t70 28t70 -28t30 -72zM1124 76q0 -43 -30 -72t-70 -29q-39 0 -70 29t-30 72q0 44 30 72t70 28t70 -28t30 -72zM442 76q0 -43 -30 -72t-70 -29q-39 0 -70 29t-30 72q0 44 30 72t70 28t70 -28t30 -72z" />
    <glyph glyph-name="perthousand" unicode="&#x2030;" horiz-adv-x="2502" 
d="M1272 1436q12 0 20 -10t8 -24t-32 -67q-346 -549 -742 -1247q-57 -98 -71 -120q-15 -22 -27 -22t-20 11q-8 10 -8 24q0 13 26 59t327 545q300 499 389 653t103 176q15 22 27 22zM399 584q-153 0 -239 117t-86 299t91 307t245 125t238 -117t85 -299q0 -182 -90 -307
t-244 -125zM135 999q0 -161 66 -265q67 -104 199 -103t202 113t70 273t-66 264t-198 103t-203 -112q-70 -112 -70 -273zM1024 370q0 -162 66 -266t198 -104t203 114q70 114 70 274t-66 263t-199 103q-132 0 -202 -112t-70 -272zM1288 -47q-154 0 -240 117t-85 299
q0 182 91 307q90 125 244 125t239 -117t85 -299t-90 -307t-244 -125zM1831 370q0 -161 65 -266q66 -104 199 -104t203 114t70 274t-66 263t-199 103t-203 -112t-69 -272zM1769 369q-1 182 91 307t246 125t238 -117q85 -117 85 -299t-90 -307t-244 -125t-240 117t-86 299z
" />
    <glyph glyph-name="guilsinglleft" unicode="&#x2039;" horiz-adv-x="501" 
d="M172 551q0 -12 12 -37l168 -303q12 -18 13 -33q0 -23 -25 -22q-14 0 -33 32l-194 326q-17 29 -17 38t17 36l194 325q18 33 33 33q25 0 25 -22q-1 -8 -13 -33l-168 -303q-12 -25 -12 -37z" />
    <glyph glyph-name="guilsinglright" unicode="&#x203a;" horiz-adv-x="501" 
d="M137 178q0 14 13 33l167 303q12 25 13 37q0 12 -13 37l-167 303q-12 25 -13 33q0 23 25 22q15 0 33 -33l194 -325q17 -27 17 -36t-17 -38l-194 -326q-18 -33 -33 -32q-25 0 -25 22z" />
    <glyph glyph-name="fraction" unicode="&#x2044;" horiz-adv-x="192" 
d="M451 1411q25 0 25 -23t-327 -649q-326 -625 -358 -702q-37 -61 -47 -64q-27 0 -27 31q1 6 7 18t26 53t50 101t265 508t301 584t72 140q6 3 13 3z" />
    <glyph glyph-name="Euro" unicode="&#x20ac;" 
d="M1161 1062l10 -151q0 -37 -26 -37q-33 0 -33 48l6 84q0 147 -105 263t-282 115q-217 0 -339 -146t-150 -392h540q59 0 60 -27q0 -27 -64 -26h-540q-8 -137 -2 -193h546q60 0 60 -27t-64 -26h-538q53 -547 495 -547q184 0 298 113t122 313q0 64 10 74t21 10q31 0 31 -41
q-1 -236 -133 -376t-374 -140t-373 164q-132 164 -159 430h-90q-51 1 -51 27t45 26h92q-2 31 -2 79t4 114h-88q-51 1 -51 27t45 26h98q33 260 168 423t394 163t372 -244l12 -27v35l-4 61l-2 64q0 59 31 59q25 0 25 -32l-5 -80q-10 -178 -10 -206z" />
    <glyph glyph-name="afii61289" unicode="&#x2113;" horiz-adv-x="1060" 
d="M311 1098v-584q217 211 330 375t113 334q0 274 -207 274q-90 0 -163 -98t-73 -301zM252 1085q0 361 205 447q49 20 100 20q125 0 191 -90t65 -225q0 -193 -130 -387t-372 -410v-47q0 -190 89 -284q89 -95 208 -95t209 72t135 164l47 -29q-143 -256 -393 -256
q-174 0 -264 120t-90 284v26l-146 -114l-30 49q18 16 82 66t94 79v610z" />
    <glyph glyph-name="trademark" unicode="&#x2122;" horiz-adv-x="2183" 
d="M1163 1388q29 0 47 -45l287 -710q13 -39 19 -39t20 39l287 710q18 45 49 45t45 -2l41 -2l113 9q31 0 30 -23q0 -23 -30 -22l-76 4q-41 0 -49 -23t-9 -133v-432q1 -119 11 -150t51 -30l72 8q37 0 36 -25q0 -27 -34 -26q-15 0 -69 8t-92 8t-92 -8t-69 -8q-35 -1 -35 25
t37 26l72 -8q41 0 51 30t10 150v549q0 14 -8 14t-14 -14l-299 -723q-19 -45 -51 -45t-46 39l-288 727q-8 16 -20 16t-11 -10v-553q0 -119 10 -150t51 -30l72 8q37 0 37 -26t-35 -25q-14 0 -68 8t-93 8q-38 0 -92 -8t-68 -8q-35 -1 -35 25t37 26l71 -8q41 0 51 30t11 150v403
q0 135 -7 160t-51 25l-75 -4q-31 0 -31 22t31 23l112 -9l45 2q12 2 41 2zM690 1350h-155q-41 0 -49 -8t-9 -42v-536q0 -119 10 -150t52 -30l71 8q37 0 37 -26t-35 -25l-159 14l-162 -14q-35 -1 -35 25t37 26l72 -8q41 0 51 30t10 150v536q0 35 -8 42t-49 8h-156
q-70 0 -82 -22t-12 -134l8 -109q0 -37 -27 -36q-25 0 -24 38l8 78l-8 193q0 35 51 35l326 -9l321 9q53 0 53 -35l-8 -193l8 -78q0 -39 -26 -38q-25 0 -25 36l8 109q0 112 -12 134t-82 22z" />
    <glyph glyph-name="Omega" unicode="&#x2126;" horiz-adv-x="1732" 
d="M516 53v6q-152 109 -249 283t-97 393q0 313 206 513t498 200t490 -210q197 -210 197 -497q1 -229 -103 -409t-248 -273v-6h383v-53h-516v39q172 88 295 272t123 423t-158 441q-75 97 -197 158t-268 62q-284 0 -460 -195t-176 -448t124 -439t291 -274v-39h-514v53h379z
" />
    <glyph glyph-name="estimated" unicode="&#x212e;" horiz-adv-x="1781" 
d="M1409 725v403q0 27 -18 50q-213 208 -500 208t-500 -217q-20 -18 -20 -49v-395q0 -14 10 -14h1020q8 0 8 14zM1712 672h-1331q-10 0 -10 -8v-404q0 -27 18 -45q211 -217 502 -217q156 0 294 64t236 178h117q-111 -131 -283 -208t-366 -77q-340 0 -580 216t-239 521
q0 305 239 522q240 218 580 218q339 0 581 -218t242 -522v-20z" />
    <glyph glyph-name="partialdiff" unicode="&#x2202;" horiz-adv-x="1218" 
d="M528 12h2q190 0 318 165q127 165 158 409q-39 100 -155 195q-115 95 -273 95t-282 -128t-124 -310t98 -304t258 -122zM557 1565q213 0 373 -205t160 -545t-134 -589q-66 -122 -178 -194t-252 -73q-204 0 -312 142t-108 327q0 224 144 362t322 138q176 0 292 -87t158 -167
h2q2 35 2 123q0 327 -142 521t-326 194t-322 -103l-39 39q147 117 360 117z" />
    <glyph glyph-name="Delta" unicode="&#x2206;" horiz-adv-x="1507" 
d="M141 55h1217l-416 928q-8 20 -87 189t-97 225h-10q-13 -41 -80 -186q-66 -146 -82 -183zM80 0v72l639 1398h72l639 -1398v-72h-1350z" />
    <glyph glyph-name="product" unicode="&#x220f;" horiz-adv-x="1599" 
d="M1536 1364h-281v-1561h-61v1561h-791v-1561h-63v1561h-279v57h1475v-57z" />
    <glyph glyph-name="summation" unicode="&#x2211;" horiz-adv-x="1280" 
d="M1221 -197h-1172v47l684 758l-651 770v43h1110v-57h-1006v-8l627 -742l-663 -741v-6h1071v-64z" />
    <glyph glyph-name="minus" unicode="&#x2212;" horiz-adv-x="1228" 
d="M102 541h1024v-58h-1024v58z" />
    <glyph glyph-name="uni2215" unicode="&#x2215;" horiz-adv-x="192" 
d="M451 1411q25 0 25 -23t-327 -649q-326 -625 -358 -702q-37 -61 -47 -64q-27 0 -27 31q1 6 7 18t26 53t50 101t265 508t301 584t72 140q6 3 13 3z" />
    <glyph glyph-name="uni2219" unicode="&#x2219;" horiz-adv-x="462" 
d="M332 512q0 -43 -31 -72q-31 -28 -70 -28t-69 28t-31 72q0 43 31 72q32 28 70 28t69 -28t31 -72z" />
    <glyph glyph-name="radical" unicode="&#x221a;" horiz-adv-x="1265" 
d="M1260 1675l-510 -1992h-80l-389 987l-175 -64l-24 51l244 93l346 -885q18 -45 33 -111h2q4 18 14 56t12 53l465 1812h62z" />
    <glyph glyph-name="infinity" unicode="&#x221e;" horiz-adv-x="1757" 
d="M1315 860h-2q-57 0 -119 -33t-103 -69q-39 -36 -95 -93q-56 -56 -74 -73q104 -106 151 -150t114 -82q67 -39 128 -38q115 0 183 78t67 197t-71 191t-179 72zM455 322h4q92 0 172 62q81 62 139 124q58 61 76 76q-4 4 -36 40l-40 45q-55 61 -75 76q-21 15 -49 39t-48 32
t-56 26q-36 17 -104 18q-114 0 -180 -83t-66 -195t72 -186t191 -74zM1632 592v-2q0 -142 -98 -236t-229 -94q-63 0 -93 14t-49 23q-18 9 -46 29t-42 31q-42 33 -91 82l-51 51q-38 38 -52 53q-139 -152 -205 -199q-115 -84 -239 -84t-219 96t-95 232t96 232q96 95 230 95
t238 -89t202 -199q69 79 103 113q119 123 192 149t139 26q143 0 226 -90t83 -233z" />
    <glyph glyph-name="integral" unicode="&#x222b;" horiz-adv-x="735" 
d="M588 1665q-68 0 -109 -41q-92 -92 -92 -385q0 -155 15 -533t16 -530q0 -289 -109 -414q-63 -70 -153 -70t-144 40l23 49q59 -33 119 -33t102 47q96 106 96 385q0 154 -15 535t-15 537t24 253q25 96 86 150q68 66 164 65q68 1 115 -34l-25 -48q-30 27 -98 27z" />
    <glyph glyph-name="approxequal" unicode="&#x2248;" horiz-adv-x="1335" 
d="M926 287q-60 0 -93 12t-41 14q-8 1 -34 15q-27 14 -34 17t-41 21q-189 98 -270 97q-81 0 -137 -45t-108 -127l-41 31q106 197 299 196q94 0 216 -72q40 -24 52 -28t40 -18q115 -60 195 -60q81 0 134 40t106 128l37 -31q-106 -190 -280 -190zM1206 834
q-107 -193 -264 -193q-86 1 -133 21q-123 54 -168 79q-143 78 -226 78t-139 -45t-108 -127l-41 31q109 195 301 194q98 0 215 -71q39 -23 73 -39q34 -15 51 -24q17 -10 61 -26t112 -16t122 40t107 130z" />
    <glyph glyph-name="notequal" unicode="&#x2260;" horiz-adv-x="1335" 
d="M1210 817v-57h-440l-174 -359h614v-57h-643l-135 -285l-49 29l123 256h-383v57h414l172 359h-586v57h614l133 277l48 -29l-119 -248h411z" />
    <glyph glyph-name="lessequal" unicode="&#x2264;" horiz-adv-x="1335" 
d="M1208 0h-1087v55h1087v-55zM1202 152l-1063 505v60l1063 504v-72l-989 -459v-4l989 -461v-73z" />
    <glyph glyph-name="greaterequal" unicode="&#x2265;" horiz-adv-x="1335" 
d="M1208 0h-1085v55h1085v-55zM139 1221l1063 -504v-60l-1063 -505v73l989 459v4l-989 461v72z" />
    <glyph glyph-name="lozenge" unicode="&#x25ca;" horiz-adv-x="1267" 
d="M1065 709l-387 667q-16 27 -45 92h-4q-10 -31 -47 -92l-381 -663l389 -670q37 -66 43 -90h6q12 35 43 90zM1133 711l-471 -817h-56l-471 817l471 817h56z" />
    <glyph glyph-name="R.alt" unicode="&#xe000;" horiz-adv-x="1579" 
d="M473 727h358q385 0 386 313q0 182 -135 253q-72 39 -161 49q-90 10 -180 10q-89 0 -199 -8t-127 -29q-17 -20 -18 -113v-434q1 -29 15 -35t61 -6zM1282 1044q0 -276 -299 -344v-4q131 -47 173 -132t42 -310q0 -114 13 -163q13 -48 40 -65q27 -18 70 -18t72 20
q51 34 62 101t11 154l-6 213q0 43 30 43t30 -52q0 -340 -31 -420t-83 -97q-34 -11 -83 -11q-115 0 -147 74q-32 73 -33 193q0 120 -2 201t-24 116q-54 89 -120 109q-106 32 -247 32h-267q-59 0 -72 -13t-14 -50v-218q-1 -254 15 -312t96 -58l115 8q45 0 45 -28t-45 -27
l-254 14l-256 -14q-45 0 -45 28t45 27l114 -8q80 0 96 58q15 58 15 312v578q0 254 -15 312t-96 59l-114 -9q-45 0 -45 28t45 28l256 -15l401 15q80 0 120 -2q40 -1 119 -21t133 -54t97 -106t43 -172z" />
    <glyph glyph-name="ampersand.alt" unicode="&#xe001;" horiz-adv-x="1753" 
d="M1319 1174q0 41 53 40q28 0 50 -20t22 -61t-38 -77t-112 -36t-120 48t-48 120q0 110 75 176t210 66t217 -81t82 -223t-102 -223q-102 -80 -262 -80q-88 0 -162 11v-5q198 -102 198 -342t-182 -386t-481 -146q-145 0 -260 36q-204 64 -297 216q-78 125 -78 271t82 275
q93 149 336 195v4q-150 57 -150 209q0 113 85 181t207 67q122 0 193 -61t70 -146q0 -59 -39 -88t-81 -29q-43 0 -71 24t-28 56q0 51 55 52q33 0 45 -28t19 -28q39 -1 39 59t-53 99t-149 39t-164 -51q-66 -51 -66 -141t60 -142q60 -51 144 -51l76 4q47 0 47 -29t-47 -28
l-51 2q-237 0 -365 -138t-128 -310q0 -173 126 -313q62 -71 176 -113t261 -42q279 0 441 139t163 340q0 158 -92 252t-236 94q-102 0 -193 -61q-91 -62 -91 -174t50 -154t108 -43q58 0 90 23q32 24 32 54t-18 30l-33 -10q-20 0 -33 14q-12 14 -12 38t18 39t52 15t59 -28
q24 -28 24 -84t-43 -98q-43 -44 -137 -44t-156 62t-62 184q0 123 93 207q94 84 279 84l299 -11q158 0 246 66t88 180q-1 114 -63 186t-174 72t-168 -53t-56 -119t33 -100q33 -35 77 -35q92 0 93 57q0 12 -13 13l-24 -8q-35 0 -35 41z" />
    <glyph glyph-name="dollar.alt" unicode="&#xe002;" 
d="M768 811v-487q92 23 160 86q68 64 68 172t-61 156t-167 73zM371 1102q0 -86 49 -131t160 -74v436q-96 -25 -152 -85t-57 -146zM625 311l47 -2q6 0 51 4v506q-9 2 -25 5t-24 5q-8 1 -24 5t-25 6v-529zM675 1343q-34 0 -50 -2v-454q16 -4 48 -10t50 -11v475q-14 2 -48 2z
M625 111q0 -47 -23 -48q-23 0 -22 52v161q-33 4 -80 21q-109 37 -171 107t-63 147q0 39 20 72t54 33q35 0 54 -17q20 -16 20 -42t-18 -41t-45 -15q-28 0 -27 -25q0 -55 75 -115q77 -59 181 -82v531q-119 33 -188 89q-68 55 -68 159t71 179q72 75 185 99v180q0 33 22 33
t23 -33v-174q14 2 47 2t51 -2v174q0 33 25 33q20 0 20 -33v-180q110 -23 184 -83t74 -156q0 -37 -22 -63t-55 -26q-32 0 -46 16q-14 15 -14 44t35 43q35 12 34 37q0 49 -51 90t-139 57v-477q127 -29 201 -90q73 -61 73 -195t-91 -204q-91 -69 -183 -88v-170q0 -47 -23 -48
q-23 0 -22 52v157q-33 -4 -47 -4l-51 2v-159z" />
    <glyph glyph-name="e.alt" unicode="&#xe003;" horiz-adv-x="1116" 
d="M961 715q0 8 -11 33q-125 266 -391 266q-164 0 -291 -132t-127 -354q-1 -37 7 -44t47 1l739 205q27 6 27 25zM990 362q26 0 26 -32q0 -74 -90 -203q-46 -66 -146 -112t-227 -46t-221 48q-163 83 -224 299q-26 89 -26 209t46 233q77 190 274 268q80 31 178 31t192 -46
q94 -45 143 -109t75 -116t26 -78t-14 -38t-48 -23l-770 -213q-34 -12 -34 -36q2 -73 32 -146q31 -74 72 -122t118 -83t177 -35q180 2 279 86t120 174q16 90 42 90z" />
    </font>
</defs>
</svg>
